<?xml version="1.0" encoding="UTF-8"?>
<svg id="Layer_2" data-name="Layer 2" xmlns="http://www.w3.org/2000/svg" viewBox="0 0 160.86 160.86">
  <defs>
    <style>
      .cls-1 {
        fill: #fff;
      }

      .cls-2 {
        fill: #331799;
      }

      .cls-3 {
        fill: #40f;
      }

      .cls-4 {
        fill: #3d09d7;
      }
    </style>
  </defs>
  <g id="Catalog">
    <g>
      <path class="cls-3" d="M160.86,35.75v17.87H0v-17.87C0,16,16,0,35.75,0h89.36c19.75,0,35.75,16,35.75,35.75Z"/>
      <path class="cls-2" d="M160.86,107.24v17.87c0,19.75-16,35.75-35.75,35.75H35.75c-19.75,0-35.75-16-35.75-35.75v-17.87h160.86Z"/>
      <rect class="cls-4" y="53.62" width="160.86" height="53.62"/>
      <path class="cls-1" d="M133.97,102.77c-4.18,0-9.15,1.04-12.81,3.65-1.05.78-1.05,1.82.26,1.82,4.18-.52,13.6-1.82,15.42.52,1.57,2.09-1.83,10.95-3.4,15.12-.52,1.3.52,1.56,1.57.78,7.06-6,8.89-18.25,7.58-19.82-.79-1.3-4.45-2.08-8.63-2.08Z"/>
      <path class="cls-1" d="M18.54,106.34c8.09,5.06,16.26,9.9,24.85,13.55,8.55,3.64,17.52,6.25,26.54,6.28,9.18.25,18.51-1.01,27.56-3.07,9.08-2.09,17.93-5.24,26.62-8.93,1.13-.49,2.45.04,2.94,1.18.45,1.05.03,2.26-.94,2.82-8.43,4.87-17.55,8.64-27.05,11.19-9.53,2.56-19.37,3.67-29.32,3.51-10.17-.53-19.91-3.63-28.62-8.14-8.74-4.53-16.67-10.23-23.91-16.61-.46-.41-.51-1.12-.1-1.58.38-.42.99-.49,1.45-.21Z"/>
      <path class="cls-1" d="M73.73,93.83h-1.81c-5.17,0-9.37-4.2-9.37-9.37v-17.44h4.47v17.44c0,2.7,2.2,4.9,4.9,4.9h1.81c2.69,0,6.7-4.01,6.7-6.7v-4.47h4.47v4.47c0,5.22-5.95,11.17-11.17,11.17Z"/>
      <rect class="cls-1" x="22.34" y="67.02" width="4.47" height="26.81"/>
      <path class="cls-1" d="M24.09,76.9c-.09-2.18.66-3.98,1.66-5.62.52-.82,1.1-1.6,1.91-2.34.9-.76,1.94-1.26,3-1.6,4.4-1.3,8.99,1.36,10.89,5.34,1,2.02.9,4.44.89,5.92v15.23h-4.47v-15.23c0-1.88.04-2.97-.48-4.05-.93-2.23-3.69-3.21-5.97-3.15-1.99-.08-4.66,3.08-5.21,5.49h-2.23Z"/>
      <path class="cls-1" d="M39.1,76.9c-.09-2.18.66-3.98,1.66-5.62.52-.82,1.1-1.6,1.91-2.34.9-.76,1.94-1.26,3-1.6,4.4-1.3,8.99,1.36,10.89,5.34,1,2.02.9,4.44.89,5.92v15.23h-4.47v-15.23c0-1.88.04-2.97-.48-4.05-.93-2.23-3.69-3.21-5.97-3.15-1.99-.08-4.66,3.08-5.21,5.49h-2.23Z"/>
      <rect class="cls-1" x="80.43" y="67.02" width="4.47" height="26.81"/>
      <rect class="cls-1" x="111.71" y="67.02" width="4.47" height="26.81"/>
      <circle class="cls-1" cx="113.94" cy="58.09" r="4.47"/>
      <path class="cls-1" d="M125.11,78.73v3.4c0,3.98,3.26,7.24,7.24,7.24,1.92,0,3.75-.76,5.14-2.1l1.03-1.03v5.81c-1.83,1.16-3.93,1.79-6.17,1.79-6.43,0-11.71-5.27-11.71-11.71v-3.4c0-6.43,5.27-11.71,11.71-11.71,2.23,0,4.33.63,6.17,1.79v5.81l-1.03-1.03c-1.39-1.34-3.22-2.1-5.14-2.1-3.98,0-7.24,3.26-7.24,7.24Z"/>
      <path class="cls-1" d="M94.93,71.29c-.45.31-1.09,1.23-1.09,2.44,0,2.59,1.43,3.35,5.18,4.6,3.49,1.12,8.22,2.73,8.22,8.8,0,2.32-.89,4.24-2.64,5.59-2.19,1.7-5.5,2.23-8.67,2.23-2.41,0-4.83-.31-6.57-.63v-4.56c4.2.85,10.19,1.25,12.47-.58.45-.31.94-.85.94-2.06,0-2.59-1.43-3.35-5.18-4.6-3.49-1.12-8.22-2.73-8.22-8.8,0-2.32.89-4.24,2.64-5.59,3.89-3.04,10.31-2.23,14.27-.73v4.56c-4.14-2.39-9.06-2.51-11.34-.67Z"/>
    </g>
  </g>
</svg>