<?xml version="1.0" encoding="UTF-8"?>
<svg id="Layer_2" data-name="Layer 2" xmlns="http://www.w3.org/2000/svg" xmlns:xlink="http://www.w3.org/1999/xlink" viewBox="0 0 162.05 162.04">
  <defs>
    <style>
      .cls-1 {
        fill: url(#linear-gradient);
      }
    </style>
    <linearGradient id="linear-gradient" x1="81.02" y1="-10.59" x2="81.02" y2="187.03" gradientUnits="userSpaceOnUse">
      <stop offset="0" stop-color="#fb5971"/>
      <stop offset="1" stop-color="#fa263e"/>
    </linearGradient>
  </defs>
  <g id="Catalog">
    <path class="cls-1" d="M161.98,41.36c0-4.98-.42-9.95-1.61-14.8-2.14-8.84-7.18-15.59-14.72-20.54-3.88-2.53-8.15-4.09-12.69-4.91-3.48-.63-7.01-.92-10.55-1-.26-.03-.55-.08-.85-.11H40.4c-1.03.08-2.06.13-3.08.18-5.04.29-10.05.82-14.8,2.71C13.5,6.46,6.98,12.68,3.19,21.65c-1.32,3.03-1.98,6.25-2.45,9.52-.39,2.64-.61,5.3-.68,7.97,0,.21-.05.42-.05.63v82.53c.05.95.11,1.9.16,2.85.34,5.51,1.05,10.97,3.38,16.04,4.38,9.58,11.74,15.88,21.84,18.91,2.82.87,5.78,1.27,8.73,1.53,3.75.37,7.49.42,11.24.42h74.48c3.53,0,7.07-.24,10.6-.68,5.57-.71,10.79-2.35,15.51-5.46,5.67-3.75,9.95-8.7,12.68-14.9,1.27-2.85,1.98-5.88,2.51-8.94.76-4.56.92-9.18.92-13.79-.03-25.64,0-51.27-.03-76.91h-.04ZM118.62,68.28v38.56c0,2.82-.39,5.59-1.66,8.15-1.95,3.98-5.11,6.49-9.36,7.7-2.35.68-4.78,1.05-7.23,1.16-6.41.32-11.98-4.04-13.11-10.37-.98-5.22,1.53-10.97,7.01-13.66,2.16-1.05,4.51-1.69,6.86-2.16,2.56-.55,5.11-1.05,7.65-1.64,1.87-.42,3.08-1.55,3.45-3.48.11-.42.13-.87.13-1.29v-36.76c0-.42-.08-.85-.18-1.24-.26-1.03-1-1.64-2.06-1.58-1.08.05-2.14.24-3.19.45-5.14,1-10.28,2.03-15.4,3.08l-24.98,5.04c-.11.03-.24.08-.34.08-1.87.53-2.53,1.37-2.61,3.32-.03.29,0,.58,0,.87-.03,17.57,0,35.13-.03,52.69,0,2.85-.32,5.65-1.45,8.28-1.87,4.32-5.2,7.04-9.68,8.34-2.37.68-4.8,1.08-7.28,1.16-6.46.24-11.84-4.06-12.95-10.42-.95-5.48,1.55-11.39,7.78-14.03,2.43-1,4.93-1.55,7.49-2.08,1.92-.39,3.88-.79,5.8-1.18,2.58-.55,3.93-2.19,4.06-4.83v-60.98c0-.85.11-1.69.29-2.51.48-1.92,1.85-3.03,3.69-3.48,1.72-.45,3.48-.76,5.22-1.13,4.96-1,9.89-2.01,14.85-2.98l15.32-3.11c4.54-.9,9.04-1.82,13.58-2.71,1.48-.29,2.98-.61,4.48-.71,2.08-.18,3.53,1.13,3.75,3.25.05.5.08,1,.08,1.5v38.72Z"/>
  </g>
</svg>