<?xml version="1.0" encoding="UTF-8"?>
<svg id="Layer_2" data-name="Layer 2" xmlns="http://www.w3.org/2000/svg" viewBox="0 0 160.86 160.86">
  <defs>
    <style>
      .cls-1 {
        fill: #fff;
      }

      .cls-2 {
        fill: #f44336;
      }
    </style>
  </defs>
  <g id="Catalog">
    <g>
      <path class="cls-2" d="M139.53,160.86H21.32c-11.78,0-21.32-9.54-21.32-21.32V21.32C0,9.54,9.54,0,21.32,0h118.22c11.77,0,21.32,9.54,21.32,21.32v118.22c0,11.77-9.54,21.32-21.32,21.32Z"/>
      <path class="cls-1" d="M97.63,22.34c-.18,0-.36,0-.54.04-12.6.22-22.83,9.92-23.91,22.3l-5.58,44.68c0,12.33,10.01,17.87,22.34,17.87h15.89c0,.13-.04.27-.04.4-1.43,13.76-1.83,17.47-14.7,17.47h-24.58l-4.47,13.4h29.04c24.89,0,26.03-16.37,28.06-29.45.27-2.41,11.81-86.73,11.81-86.73h-33.34ZM102.89,93.83h-11.55c-5.72,0-10.32-4.6-10.32-10.32l5.44-38.83c.49-5.72,7.6-8.85,13.4-8.94h11.34c1.47,0,2.41.4,2.99,1.03,1.21,1.21.94,3.35.67,5.18l-5.09,32.31-2.46,15.77c-.31,2.19-2.19,3.8-4.42,3.8Z"/>
    </g>
  </g>
</svg>