<?xml version="1.0" encoding="UTF-8"?>
<svg id="Layer_2" data-name="Layer 2" xmlns="http://www.w3.org/2000/svg" viewBox="0 0 169.14 169.14">
  <defs>
    <style>
      .cls-1 {
        fill: #fff;
      }

      .cls-2 {
        fill: #1eccb0;
      }
    </style>
  </defs>
  <g id="Catalog">
    <g>
      <g>
        <path class="cls-2" d="M0,84.57c0,46.51,38.06,84.57,84.57,84.57s84.57-38.06,84.57-84.57S131.08,0,84.57,0,0,38.06,0,84.57Z"/>
        <path class="cls-1" d="M72.94,132.67c-3.17-5.29-7.4-10.04-12.69-13.21-5.29-3.17-10.57-5.81-16.91-7.4h0c-.53,0-1.06,0-1.59.53-.53.53-.53,1.06-.53,1.59s0,1.06.53,1.06c6.87,10.04,17.44,17.44,29.07,20.61h1.59s.53,0,.53-.53l.53-.53v-1.06c0-.53,0-1.06-.53-1.06h0Z"/>
        <path class="cls-1" d="M135.31,70.3v-.53c-2.64-9.51-7.93-17.97-15.33-24.31-7.4-6.34-15.86-11.1-25.37-12.69h-.53c-.53,0-1.06,0-1.59.53-.53.53-.53,1.06-.53,1.59v.53c4.76,29.07,1.59,58.67-8.99,86.15,0,.53-.53.53-.53,1.06s-.53.53-1.06.53h-1.06s-.53,0-.53-.53l-.53-.53v-1.06s-.53-3.7-.53-5.29c-3.17-25.37-10.57-49.68-22.73-72.41,0-.53-.53-.53-.53-.53l-.53-.53h-1.06q-.53,0-1.06,0h0c-7.4,5.81-13.21,13.21-16.91,22.2v1.59c0,.53.53,1.06,1.06,1.06,11.63,7.4,21.14,16.91,28.01,29.07,6.87,11.63,10.57,25.37,11.1,38.58,0,.53,0,1.06.53,1.59.53.53,1.06.53,1.06.53,1.06,0,2.64.53,3.7.53.53,0,1.06,0,1.59-.53s.53-.53.53-1.06c2.64-13.74,8.46-26.96,17.44-38.06,8.99-11.1,20.08-19.56,33.3-25.37.53,0,.53-.53,1.06-.53q0-1.06,0-1.59Z"/>
      </g>
      <path class="cls-1" d="M130.55,110.47c0-.53,0-1.06-.53-1.59-.53-.53-1.06-.53-1.59-.53h-.53c-16.38,3.7-31.18,12.69-41.76,25.37-.53.53-.53,1.06-.53,1.59s0,1.06.53,1.59c.53.53,1.06.53,1.59.53h0c8.46-.53,16.91-3.17,24.31-7.4,7.4-4.23,13.74-10.57,17.97-17.97.53-.53.53-1.06.53-1.59h0Z"/>
    </g>
  </g>
</svg>