<?xml version="1.0" encoding="UTF-8"?>
<svg id="Layer_2" data-name="Layer 2" xmlns="http://www.w3.org/2000/svg" viewBox="0 0 153.76 153.76">
  <defs>
    <style>
      .cls-1 {
        fill: #ff6a22;
      }

      .cls-2 {
        fill: #fff;
      }
    </style>
  </defs>
  <g id="Catalog">
    <g>
      <circle class="cls-1" cx="76.88" cy="76.88" r="76.88"/>
      <path class="cls-2" d="M114.65,74.5c3.42-1.19,6.65-1.25,9.94-.14,4.92,1.66,8.73,6.57,9.31,11.76.85,7.55-4.22,13.93-10.94,15.37-1.44.31-2.94.45-4.41.45-12,.04-24,.02-36,.02-2.86,0-3.38-.53-3.38-3.42,0-13.84,0-27.69,0-41.53,0-2.61.16-2.83,2.56-3.65,14.79-5.04,30.59,4.71,32.73,20.2.03.24.1.48.2.95Z"/>
      <path class="cls-2" d="M79.01,87.31c-.22,4.04-.44,8.08-.68,12.12-.02.3-.12.6-.17.9-.2,1.03-.89,1.67-1.83,1.35-.61-.21-1.39-1.01-1.44-1.61-.33-3.98-.68-7.98-.64-11.96.09-10.2.38-20.4.57-30.6.02-1.1.36-2.01,1.54-2.12,1.3-.13,1.77.81,1.91,1.94.06.46.08.92.09,1.38.13,6.87.28,13.74.39,20.61.04,2.66,0,5.33,0,7.99.09,0,.18,0,.27,0Z"/>
      <path class="cls-2" d="M69.98,76.86c0-5.07,0-10.15.01-15.22,0-.76-.03-1.61.27-2.26.25-.54.95-1.13,1.49-1.18.45-.04,1.12.58,1.41,1.08.28.49.27,1.19.28,1.79.14,8,.33,15.99.36,23.99.02,4.71-.21,9.41-.34,14.12-.01.46,0,1-.23,1.34-.37.53-.99,1.32-1.43,1.28-.57-.05-1.18-.75-1.58-1.3-.26-.37-.24-.99-.25-1.49-.17-7.38-.33-14.75-.49-22.13.17,0,.33,0,.5,0Z"/>
      <path class="cls-2" d="M69.18,87.5c-.22,4.14-.43,8.28-.68,12.41-.06.97-.39,1.91-1.58,1.9-1.25,0-1.55-.94-1.63-2.01-.69-9.46-.51-18.92-.06-28.39.1-2.15.05-4.3.07-6.45.01-1.12.33-2.16,1.65-2.15,1.25.01,1.51,1.09,1.55,2.1.13,3.53.26,7.06.3,10.59.05,3.99.01,7.98.01,11.98.12,0,.24,0,.37,0Z"/>
      <path class="cls-2" d="M64.39,86.48c-.25,4.5-.5,9-.77,13.5-.06.94-.36,1.79-1.48,1.8-1.11,0-1.44-.79-1.47-1.77-.18-5.89-.51-11.77-.51-17.66,0-6.1.33-12.19.5-18.29.03-.99.17-1.96,1.38-2.02,1.31-.06,1.55.95,1.59,2,.09,2.66.22,5.33.24,7.99.04,4.82.01,9.63.01,14.45.17,0,.34,0,.51,0Z"/>
      <path class="cls-2" d="M59.51,89.13c-.21,3.02-.46,7.16-.85,11.29-.05.5-.85.93-1.3,1.39-.44-.47-1.21-.92-1.26-1.43-.72-7.66-.89-15.33-.45-23.03.25-4.35.27-8.71.38-13.06.01-.41-.13-.9.04-1.21.32-.59.76-1.42,1.28-1.53,1.03-.21,1.33.67,1.37,1.58.08,1.74.19,3.48.23,5.22.18,6.56.35,13.11.55,20.78Z"/>
      <path class="cls-2" d="M54.77,88.13c-.18,2.87-.45,7.27-.74,11.66-.02.3-.02.68-.19.89-.36.42-.85,1.04-1.24,1.01-.41-.03-1.06-.7-1.11-1.14-.8-7.65-.9-15.32-.52-23,.21-4.2.31-8.4.46-12.59.02-.46-.12-1,.07-1.36.25-.46.73-1,1.19-1.09.31-.06.88.53,1.11.95.23.42.21.99.22,1.5.24,7.22.46,14.44.74,23.19Z"/>
      <path class="cls-2" d="M45.91,88.6c.32-8.05.59-15.26.94-22.47.03-.54.67-1.05,1.02-1.58.43.53,1.16,1.03,1.22,1.59.23,2.13.25,4.29.34,6.44.21,5.06.6,10.13.56,15.19-.03,4.23-.52,8.47-.91,12.69-.05.5-.75.94-1.15,1.4-.38-.47-1.04-.91-1.09-1.4-.4-4.22-.69-8.46-.95-11.86Z"/>
      <path class="cls-2" d="M41.46,88.36c.28-6.41.52-11.84.75-17.26,0-.05,0-.1,0-.15.09-.84-.08-1.98,1.12-2.03,1.22-.04,1.13,1.11,1.19,1.95.12,1.68.2,3.37.29,5.06.21,3.99.63,7.98.57,11.96-.06,4.18-.55,8.37-.94,12.54-.04.47-.67.88-1.02,1.31-.39-.45-1.09-.88-1.13-1.36-.37-4.33-.62-8.67-.84-12.02Z"/>
      <path class="cls-2" d="M36.85,88.64c.32-3.66.62-7.38,1.02-11.08.05-.47.61-.88.93-1.32.33.45.92.87.95,1.34.4,5.38,1.53,10.72.6,16.16-.36,2.11-.32,4.28-.59,6.41-.07.54-.64,1.01-.98,1.51-.33-.5-.89-.98-.94-1.51-.39-3.81-.67-7.63-.99-11.52Z"/>
      <path class="cls-2" d="M36.24,88.7c-.37,3.76-.71,7.58-1.15,11.38-.05.48-.59.9-.9,1.35-.3-.46-.82-.9-.88-1.38-.36-3.45-.84-6.91-.87-10.37-.03-3.56.42-7.13.66-10.69.06-.81.05-1.65.23-2.43.1-.42.54-.76.83-1.14.29.35.8.68.85,1.06.36,2.94.63,5.89.92,8.83.11,1.12.2,2.24.3,3.4Z"/>
      <path class="cls-2" d="M27.86,88.58c.37-3.89.7-7.66,1.11-11.43.05-.45.49-.85.74-1.28.27.43.71.84.77,1.3.33,2.59.47,5.2.86,7.77.72,4.8-.51,9.47-.72,14.21-.01.25-.05.54-.18.74-.23.38-.54.72-.82,1.08-.22-.36-.61-.69-.65-1.07-.41-3.81-.76-7.63-1.11-11.34Z"/>
      <path class="cls-2" d="M27.12,88.69c-.37,3.05-.73,6.21-1.17,9.34-.06.41-.52.76-.79,1.14-.24-.41-.65-.8-.71-1.24-.74-5.53-1.38-11.07-.21-16.63.16-.75.06-1.55.24-2.29.1-.42.52-.75.79-1.13.23.36.62.71.67,1.1.3,1.97.52,3.96.75,5.94.15,1.22.27,2.44.42,3.77Z"/>
      <path class="cls-2" d="M19.49,88.59c.29-2.04.54-3.92.85-5.78.06-.35.37-.65.56-.97.28.31.71.59.8.95.96,3.88.97,7.77,0,11.65-.08.34-.45.6-.69.9-.22-.23-.6-.44-.64-.7-.34-2.06-.62-4.14-.89-6.04Z"/>
    </g>
  </g>
</svg>