<?xml version="1.0" encoding="UTF-8"?>
<svg id="Layer_2" data-name="Layer 2" xmlns="http://www.w3.org/2000/svg" viewBox="0 0 168.43 167.84">
  <defs>
    <style>
      .cls-1 {
        fill: #00c943;
      }
    </style>
  </defs>
  <g id="Catalog">
    <path class="cls-1" d="M168.43,82.79v1.97c-.14.74-.33,1.48-.41,2.23-.49,4.39-.58,8.86-1.5,13.15-5.43,25.32-19.49,44.46-42.12,57.15-11.39,6.39-23.71,9.75-36.82,10.14-.8.02-1.59.27-2.39.41h-1.97c-.69-.14-1.37-.34-2.06-.4-1.85-.16-3.71-.21-5.56-.38-9.58-.86-18.78-3.26-27.33-7.63C18.84,144.43,2.68,120.53.42,87.48.36,86.67.14,85.88,0,85.09,0,84.21,0,83.34,0,82.46c.15-.85.34-1.7.43-2.55.34-3.25.49-6.53,1.01-9.75,2.64-16.56,9.65-31.14,21.19-43.23C43.48,5.08,69.18-3.59,98.96,1.34c21.72,3.59,39.27,14.78,52.51,32.38,10.42,13.84,15.97,29.49,16.56,46.84.03.75.26,1.49.4,2.23ZM72.24,49.94c-2.99.18-8.32.23-13.57.9-7.25.93-14.47,2.22-21.65,3.6-4.23.81-6.71,4.99-5.71,8.9,1.09,4.28,4.98,6.63,9.32,5.55,7.88-1.94,15.89-3.11,23.96-3.61,5.4-.33,10.85-.4,16.24,0,6.52.48,13.06,1.26,19.48,2.47,8.93,1.69,17.35,4.96,25.23,9.53,1.9,1.1,3.93,1.43,6.01.88,2.96-.79,4.85-2.77,5.39-5.78.58-3.26-.42-6.11-3.38-7.72-4.17-2.27-8.43-4.45-12.82-6.27-14.78-6.12-30.33-8.22-48.52-8.44ZM124.84,92.88c.13-2.71-1.05-4.64-3.31-5.69-5.1-2.38-10.14-4.99-15.45-6.77-12.31-4.14-25.04-5.37-38.01-4.75-8.17.39-16.22,1.4-24.16,3.31-3.74.9-5.74,4.04-4.86,7.61.81,3.29,4.11,5.17,7.71,4.32,7.58-1.77,15.27-2.89,23.04-3,5.08-.07,10.17.23,15.24.61,6.84.52,13.53,2,19.92,4.5,3.76,1.47,7.35,3.36,11.01,5.08,4.27,2.01,8.85-.75,8.87-5.23ZM72.02,97.63c-2.29.14-4.6.15-6.87.46-6.05.81-12.09,1.69-18.12,2.67-1.85.3-3.09,1.6-3.69,3.39-1.37,4.1,2.16,7.6,6.73,6.61,9.07-1.97,18.2-2.96,27.51-2.27,5.47.41,10.93.94,16.12,2.68,4.8,1.61,9.44,3.72,14.08,5.75,3.38,1.48,6.9-.05,7.72-3.56.56-2.4-.67-4.57-3.39-6.09-12.46-6.95-25.99-9.39-40.09-9.63Z"/>
  </g>
</svg>