<?xml version="1.0" encoding="UTF-8"?>
<svg id="Layer_2" data-name="Layer 2" xmlns="http://www.w3.org/2000/svg" viewBox="0 0 169.13 169.14">
  <defs>
    <style>
      .cls-1 {
        fill: red;
      }

      .cls-2 {
        fill: #f1f1f1;
      }
    </style>
  </defs>
  <g id="Catalog">
    <g id="Layer_2-2" data-name="Layer 2">
      <g>
        <g>
          <path class="cls-1" d="M84.57,0C37.86,0,0,37.96,0,84.79c4.45,112.47,164.7,112.44,169.13,0C169.13,37.96,131.27,0,84.57,0ZM84.57,133.35c-26.77,0-48.55-21.78-48.55-48.55,1.32-33.23,26.09-48.31,48.55-48.31h0c22.46,0,47.23,15.09,48.55,48.2,0,26.88-21.78,48.66-48.55,48.66Z"/>
          <path class="cls-1" d="M84.57,42.02c-28.39,0-42.2,22.23-43.02,42.89,0,23.61,19.3,42.91,43.02,42.91s43.02-19.3,43.02-43.02c-.81-20.54-14.62-42.77-43.01-42.78Z"/>
        </g>
        <path class="cls-2" d="M68.64,89.07c0,4.58,0,14.01,0,18.62l38.82-23.89-38.82-21.9v27.16Z"/>
      </g>
    </g>
  </g>
</svg>