<svg xmlns="http://www.w3.org/2000/svg" viewBox="0 0 500 581.88"><g id="Layer_2" data-name="Layer 2"><g id="Layer_1-2" data-name="Layer 1"><path d="M500,426.92c-13.64,30.29-20.21,43.83-37.75,70.56-24.56,37.36-59.2,84-102,84.3-38.09.35-47.93-24.85-99.66-24.41-51.69.25-62.46,24.9-100.61,24.51-42.84-.4-75.6-42.4-100.16-79.7C-8.85,397.57-16.11,274.93,26.33,209.71c30.05-46.25,77.53-73.43,122.15-73.43,45.46,0,74,24.95,111.57,24.95,36.47,0,58.66-25,111.23-25,39.73,0,81.73,21.64,111.77,59C384.82,249.09,400.78,389.37,500,426.92ZM331.36,94.48C350.48,69.92,365,35.28,359.72,0c-31.18,2.12-67.65,22-88.94,47.83-19.32,23.52-35.33,58.41-29.11,92.16C275.72,141.07,311,120.76,331.36,94.48Z"/></g></g></svg>