<svg xmlns="http://www.w3.org/2000/svg" viewBox="0 0 500 500"><defs><style>.cls-1{fill:#fff;}</style></defs><g id="Layer_1" data-name="Layer 1"><path class="cls-1" d="M354.82,226.56l-5,40.42a13.48,13.48,0,0,1-13.35,11.83H271v169q-10.37.94-21,.94a234.14,234.14,0,0,1-46.18-4.59V278.81H153.47a8.44,8.44,0,0,1-8.4-8.42V219.81a8.44,8.44,0,0,1,8.4-8.42h50.35V135.53c0-46.55,37.58-84.28,83.94-84.28h58.75a8.43,8.43,0,0,1,8.39,8.43v50.57a8.43,8.43,0,0,1-8.39,8.42h-42A33.65,33.65,0,0,0,271,152.39v59h70.5A13.49,13.49,0,0,1,354.82,226.56Z"/></g></svg>