<svg xmlns="http://www.w3.org/2000/svg" viewBox="0 0 500 500"><defs><style>.cls-1{fill:#fff;}</style></defs><g id="Layer_1" data-name="Layer 1"><rect x="12.32" y="201.55" width="475.36" height="96.9" rx="9.11"/><path class="cls-1" d="M465,305.27H35A29.56,29.56,0,0,1,5.5,275.74V224.26A29.56,29.56,0,0,1,35,194.73H465a29.56,29.56,0,0,1,29.53,29.53v51.48A29.56,29.56,0,0,1,465,305.27ZM35,208.37a15.91,15.91,0,0,0-15.89,15.89v51.48A15.91,15.91,0,0,0,35,291.63H465a15.91,15.91,0,0,0,15.89-15.89V224.26A15.91,15.91,0,0,0,465,208.37Z"/><path class="cls-1" d="M79.84,272.34h-9a2.11,2.11,0,0,1-1.6-.52,2.35,2.35,0,0,1-.49-1.67V230.66a2.35,2.35,0,0,1,.49-1.67,2.11,2.11,0,0,1,1.6-.52H96.72a2.08,2.08,0,0,1,1.59.52,2.35,2.35,0,0,1,.5,1.67v7.26a2.35,2.35,0,0,1-.5,1.67,2.08,2.08,0,0,1-1.59.52H81.93v6.34H92a2.15,2.15,0,0,1,1.6.51,2.44,2.44,0,0,1,.49,1.68V256a2.44,2.44,0,0,1-.49,1.68,2.15,2.15,0,0,1-1.6.51H81.93v12a2.35,2.35,0,0,1-.5,1.67A2.08,2.08,0,0,1,79.84,272.34Z"/><path class="cls-1" d="M115.34,272.34H106.7a2.11,2.11,0,0,1-1.6-.52,2.35,2.35,0,0,1-.49-1.67V230.66a2.35,2.35,0,0,1,.49-1.67,2.11,2.11,0,0,1,1.6-.52H116a2.56,2.56,0,0,1,1.53.43,3.78,3.78,0,0,1,1.13,1.4l5.22,9.93a4.61,4.61,0,0,0,.5.79.66.66,0,0,0,.55.25h.52A.66.66,0,0,0,126,241a4.12,4.12,0,0,0,.49-.79l5.17-9.93a3.88,3.88,0,0,1,1.13-1.4,2.57,2.57,0,0,1,1.54-.43h9.39a2.11,2.11,0,0,1,1.6.52,2.35,2.35,0,0,1,.49,1.67v39.49a2.35,2.35,0,0,1-.49,1.67,2.11,2.11,0,0,1-1.6.52h-8.93a2.11,2.11,0,0,1-1.6-.52,2.4,2.4,0,0,1-.49-1.67V248.7l-3.42,6.64a3.57,3.57,0,0,1-1.25,1.49,3.31,3.31,0,0,1-1.83.46h-2.32a3.3,3.3,0,0,1-1.82-.46,3.57,3.57,0,0,1-1.25-1.49l-3.42-6.64v21.45a2.35,2.35,0,0,1-.5,1.67A2.08,2.08,0,0,1,115.34,272.34Z"/><path class="cls-1" d="M188.54,272.34H169a2.1,2.1,0,0,1-1.59-.52,2.35,2.35,0,0,1-.49-1.67V230.66a2.35,2.35,0,0,1,.49-1.67,2.1,2.1,0,0,1,1.59-.52h19.55q7.26,0,10.76,3.05t3.51,9.38v19q0,6.34-3.51,9.38T188.54,272.34Zm-8.47-32.23v20.72H187a2.66,2.66,0,0,0,2.06-.74,3.25,3.25,0,0,0,.66-2.25V243a3.17,3.17,0,0,0-.66-2.22,2.72,2.72,0,0,0-2.06-.7Z"/><path class="cls-1" d="M211.34,272.34a2.11,2.11,0,0,1-1.6-.52,2.35,2.35,0,0,1-.49-1.67V262.9a2.39,2.39,0,0,1,.49-1.68,2.15,2.15,0,0,1,1.6-.52h5.74V240.23h-5.74a2.11,2.11,0,0,1-1.6-.52,2.35,2.35,0,0,1-.49-1.67v-7.38a2.35,2.35,0,0,1,.49-1.67,2.11,2.11,0,0,1,1.6-.52h24.71a2.08,2.08,0,0,1,1.59.52,2.35,2.35,0,0,1,.5,1.67V238a2.35,2.35,0,0,1-.5,1.67,2.08,2.08,0,0,1-1.59.52h-5.63V260.7h5.63a2.12,2.12,0,0,1,1.59.52,2.39,2.39,0,0,1,.5,1.68v7.25a2.35,2.35,0,0,1-.5,1.67,2.08,2.08,0,0,1-1.59.52Z"/><path class="cls-1" d="M277.18,272.34H258.9q-7.24,0-10.76-3t-3.51-9.38v-19q0-6.33,3.51-9.38t10.76-3.05h14.51A2.1,2.1,0,0,1,275,229a2.35,2.35,0,0,1,.49,1.67V238a2.35,2.35,0,0,1-.49,1.67,2.1,2.1,0,0,1-1.59.52H261.34a4,4,0,0,0-2.67.76,2.88,2.88,0,0,0-.87,2.29v14.56a3.2,3.2,0,0,0,.67,2.25,2.56,2.56,0,0,0,2,.74h5.63v-9.51a2.39,2.39,0,0,1,.49-1.68,2.14,2.14,0,0,1,1.59-.51h9a2.14,2.14,0,0,1,1.59.51,2.39,2.39,0,0,1,.49,1.68v18.83a2.35,2.35,0,0,1-.49,1.67A2.1,2.1,0,0,1,277.18,272.34Z"/><path class="cls-1" d="M287.5,272.34a2.08,2.08,0,0,1-1.59-.52,2.35,2.35,0,0,1-.5-1.67V262.9a2.39,2.39,0,0,1,.5-1.68,2.12,2.12,0,0,1,1.59-.52h5.74V240.23H287.5a2.08,2.08,0,0,1-1.59-.52,2.35,2.35,0,0,1-.5-1.67v-7.38a2.35,2.35,0,0,1,.5-1.67,2.08,2.08,0,0,1,1.59-.52h24.71a2.11,2.11,0,0,1,1.6.52,2.4,2.4,0,0,1,.49,1.67V238a2.4,2.4,0,0,1-.49,1.67,2.11,2.11,0,0,1-1.6.52h-5.63V260.7h5.63a2.15,2.15,0,0,1,1.6.52,2.44,2.44,0,0,1,.49,1.68v7.25a2.4,2.4,0,0,1-.49,1.67,2.11,2.11,0,0,1-1.6.52Z"/><path class="cls-1" d="M341.16,272.34h-9.4a2.11,2.11,0,0,1-1.6-.52,2.35,2.35,0,0,1-.49-1.67V240.23h-8.53a2.1,2.1,0,0,1-1.59-.52,2.35,2.35,0,0,1-.49-1.67v-7.38a2.35,2.35,0,0,1,.49-1.67,2.1,2.1,0,0,1,1.59-.52h30.63a2.11,2.11,0,0,1,1.6.52,2.4,2.4,0,0,1,.49,1.67V238a2.4,2.4,0,0,1-.49,1.67,2.11,2.11,0,0,1-1.6.52h-8.53v29.92a2.35,2.35,0,0,1-.49,1.67A2.1,2.1,0,0,1,341.16,272.34Z"/><path class="cls-1" d="M369,270.15a2.4,2.4,0,0,1-.49,1.67,2.11,2.11,0,0,1-1.6.52h-8.53a2.1,2.1,0,0,1-1.59-.52,2.35,2.35,0,0,1-.49-1.67V254.06a18.65,18.65,0,0,1,.55-4.2,45.57,45.57,0,0,1,1.71-5.55l5-13.83a2.84,2.84,0,0,1,1.08-1.52,3.26,3.26,0,0,1,1.88-.49h15.61A3.15,3.15,0,0,1,384,229a2.84,2.84,0,0,1,1.08,1.52l5,13.83a45.57,45.57,0,0,1,1.71,5.55,18.71,18.71,0,0,1,.56,4.2v16.09a2.35,2.35,0,0,1-.5,1.67,2.1,2.1,0,0,1-1.59.52h-8.76a2.38,2.38,0,0,1-1.71-.52,2.18,2.18,0,0,1-.55-1.67v-8.53H369Zm3.31-28.88-2.73,9.26h9.11L376,241.27a2.57,2.57,0,0,0-.49-.8.89.89,0,0,0-.61-.24h-1.45a.87.87,0,0,0-.61.24A2.25,2.25,0,0,0,372.31,241.27Z"/><path class="cls-1" d="M431.12,272.34H401.6a2.11,2.11,0,0,1-1.6-.52,2.35,2.35,0,0,1-.49-1.67V230.66A2.35,2.35,0,0,1,400,229a2.11,2.11,0,0,1,1.6-.52h9a2.08,2.08,0,0,1,1.59.52,2.35,2.35,0,0,1,.5,1.67v30.17h7.94V251a2.35,2.35,0,0,1,.5-1.67,2.1,2.1,0,0,1,1.59-.52h8.41a2.11,2.11,0,0,1,1.6.52,2.35,2.35,0,0,1,.49,1.67v19.2a2.35,2.35,0,0,1-.49,1.67A2.11,2.11,0,0,1,431.12,272.34Z"/><g id="l1"><path d="M55.59,205.57H54.34a.28.28,0,0,1-.22-.08.29.29,0,0,1-.07-.23v-5.48a.33.33,0,0,1,.07-.24.32.32,0,0,1,.22-.07h3.59a.3.3,0,0,1,.22.07.33.33,0,0,1,.07.24v1a.33.33,0,0,1-.07.24.26.26,0,0,1-.22.07h-2V202h1.4a.28.28,0,0,1,.22.07.32.32,0,0,1,.07.23v1a.3.3,0,0,1-.07.23.28.28,0,0,1-.22.07h-1.4v1.67a.29.29,0,0,1-.07.23A.29.29,0,0,1,55.59,205.57Z"/><path d="M60.52,205.57h-1.2a.28.28,0,0,1-.22-.08.29.29,0,0,1-.07-.23v-5.48a.33.33,0,0,1,.07-.24.32.32,0,0,1,.22-.07h1.3a.37.37,0,0,1,.21.06.56.56,0,0,1,.16.2l.72,1.38.07.11a.1.1,0,0,0,.08,0h.07a.11.11,0,0,0,.08,0s0-.06.06-.11l.72-1.38a.56.56,0,0,1,.16-.2.35.35,0,0,1,.21-.06h1.31a.34.34,0,0,1,.22.07.38.38,0,0,1,.07.24v5.48a.33.33,0,0,1-.07.23.29.29,0,0,1-.22.08H63.23a.3.3,0,0,1-.23-.08.33.33,0,0,1-.06-.23v-3l-.48.93a.58.58,0,0,1-.17.2.5.5,0,0,1-.26.07h-.32a.49.49,0,0,1-.25-.07.51.51,0,0,1-.18-.2l-.47-.93v3a.29.29,0,0,1-.07.23A.28.28,0,0,1,60.52,205.57Z"/><path d="M70.69,205.57H68a.29.29,0,0,1-.22-.08.29.29,0,0,1-.07-.23v-5.48a.33.33,0,0,1,.07-.24.34.34,0,0,1,.22-.07h2.72a2.17,2.17,0,0,1,1.49.43,1.6,1.6,0,0,1,.49,1.3v2.64a1.6,1.6,0,0,1-.49,1.3A2.17,2.17,0,0,1,70.69,205.57Zm-1.18-4.48V204h1a.42.42,0,0,0,.29-.1.49.49,0,0,0,.09-.32V201.5a.43.43,0,0,0-.09-.31.38.38,0,0,0-.29-.1Z"/><path d="M73.85,205.57a.29.29,0,0,1-.22-.08.33.33,0,0,1-.07-.23v-1a.37.37,0,0,1,.07-.23.29.29,0,0,1,.22-.07h.8v-2.84h-.8a.29.29,0,0,1-.22-.08.33.33,0,0,1-.07-.23v-1a.38.38,0,0,1,.07-.24.34.34,0,0,1,.22-.07h3.43a.35.35,0,0,1,.23.07.38.38,0,0,1,.06.24v1a.33.33,0,0,1-.06.23.3.3,0,0,1-.23.08H76.5V204h.78a.3.3,0,0,1,.23.07.37.37,0,0,1,.06.23v1a.33.33,0,0,1-.06.23.3.3,0,0,1-.23.08Z"/><path d="M83,205.57H80.46a2.22,2.22,0,0,1-1.5-.43,1.63,1.63,0,0,1-.48-1.3V201.2a1.63,1.63,0,0,1,.48-1.3,2.22,2.22,0,0,1,1.5-.43h2a.32.32,0,0,1,.22.07.33.33,0,0,1,.07.24v1a.29.29,0,0,1-.07.23.28.28,0,0,1-.22.08H80.8a.55.55,0,0,0-.37.1.41.41,0,0,0-.12.32v2a.49.49,0,0,0,.09.32.38.38,0,0,0,.28.1h.78v-1.32a.33.33,0,0,1,.07-.24.32.32,0,0,1,.22-.07H83a.34.34,0,0,1,.22.07.38.38,0,0,1,.07.24v2.61a.33.33,0,0,1-.07.23A.29.29,0,0,1,83,205.57Z"/><path d="M84.43,205.57a.28.28,0,0,1-.22-.08.29.29,0,0,1-.07-.23v-1a.32.32,0,0,1,.07-.23.28.28,0,0,1,.22-.07h.8v-2.84h-.8a.28.28,0,0,1-.22-.08.29.29,0,0,1-.07-.23v-1a.33.33,0,0,1,.07-.24.32.32,0,0,1,.22-.07h3.43a.32.32,0,0,1,.22.07.33.33,0,0,1,.07.24v1a.29.29,0,0,1-.07.23.28.28,0,0,1-.22.08h-.78V204h.78a.28.28,0,0,1,.22.07.32.32,0,0,1,.07.23v1a.29.29,0,0,1-.07.23.28.28,0,0,1-.22.08Z"/><path d="M91.88,205.57h-1.3a.28.28,0,0,1-.22-.08.29.29,0,0,1-.07-.23v-4.15H89.1a.29.29,0,0,1-.22-.08.33.33,0,0,1-.07-.23v-1a.38.38,0,0,1,.07-.24.34.34,0,0,1,.22-.07h4.26a.34.34,0,0,1,.22.07.38.38,0,0,1,.07.24v1a.33.33,0,0,1-.07.23.29.29,0,0,1-.22.08H92.17v4.15a.29.29,0,0,1-.07.23A.28.28,0,0,1,91.88,205.57Z"/><path d="M95.75,205.26a.29.29,0,0,1-.07.23.28.28,0,0,1-.22.08H94.28a.3.3,0,0,1-.23-.08.33.33,0,0,1-.06-.23V203a2.68,2.68,0,0,1,.07-.59,6.43,6.43,0,0,1,.24-.77l.7-1.92a.41.41,0,0,1,.15-.21.5.5,0,0,1,.26-.07h2.17a.46.46,0,0,1,.25.07.41.41,0,0,1,.15.21l.7,1.92a6.43,6.43,0,0,1,.24.77A2.75,2.75,0,0,1,99,203v2.23a.33.33,0,0,1-.07.23.29.29,0,0,1-.22.08H97.49a.33.33,0,0,1-.24-.08.29.29,0,0,1-.07-.23v-1.18H95.75Zm.46-4-.38,1.29H97.1l-.38-1.29a.35.35,0,0,0-.07-.11.14.14,0,0,0-.09,0h-.2a.11.11,0,0,0-.08,0A.23.23,0,0,0,96.21,201.25Z"/><path d="M104.38,205.57h-4.1a.28.28,0,0,1-.22-.08.29.29,0,0,1-.07-.23v-5.48a.33.33,0,0,1,.07-.24.32.32,0,0,1,.22-.07h1.25a.34.34,0,0,1,.22.07.38.38,0,0,1,.07.24V204h1.1V202.6a.33.33,0,0,1,.07-.24.32.32,0,0,1,.22-.07h1.17a.34.34,0,0,1,.22.07.33.33,0,0,1,.07.24v2.66a.29.29,0,0,1-.07.23A.29.29,0,0,1,104.38,205.57Z"/><path d="M102.86,295.45h1.24a.3.3,0,0,1,.23.07.37.37,0,0,1,.06.23v5.49a.35.35,0,0,1-.06.23.3.3,0,0,1-.23.07h-3.59a.29.29,0,0,1-.22-.07.3.3,0,0,1-.07-.23v-1a.3.3,0,0,1,.07-.23.29.29,0,0,1,.22-.07h2.06v-.88h-1.41a.29.29,0,0,1-.22-.08.33.33,0,0,1-.07-.23v-1a.38.38,0,0,1,.07-.24.34.34,0,0,1,.22-.07h1.41v-1.67a.37.37,0,0,1,.06-.23A.3.3,0,0,1,102.86,295.45Z"/><path d="M97.93,295.45h1.2a.29.29,0,0,1,.22.07.37.37,0,0,1,.07.23v5.49a.35.35,0,0,1-.07.23.29.29,0,0,1-.22.07h-1.3a.33.33,0,0,1-.21-.06.52.52,0,0,1-.16-.19l-.73-1.38a.35.35,0,0,0-.07-.11.08.08,0,0,0-.07,0h-.07a.1.1,0,0,0-.08,0,.72.72,0,0,0-.07.11l-.72,1.38a.63.63,0,0,1-.15.19.38.38,0,0,1-.22.06H94a.28.28,0,0,1-.22-.07.3.3,0,0,1-.07-.23v-5.49a.32.32,0,0,1,.07-.23.28.28,0,0,1,.22-.07h1.24a.29.29,0,0,1,.22.07.32.32,0,0,1,.07.23v3l.47-.92a.54.54,0,0,1,.18-.21.46.46,0,0,1,.25-.06h.32a.53.53,0,0,1,.26.06.62.62,0,0,1,.17.21l.48.92v-3a.37.37,0,0,1,.06-.23A.3.3,0,0,1,97.93,295.45Z"/><path d="M87.76,295.45h2.71a.26.26,0,0,1,.22.07.32.32,0,0,1,.07.23v5.49a.3.3,0,0,1-.07.23.26.26,0,0,1-.22.07H87.76a2.28,2.28,0,0,1-1.5-.42,1.65,1.65,0,0,1-.48-1.3v-2.64a1.67,1.67,0,0,1,.48-1.31A2.28,2.28,0,0,1,87.76,295.45Zm1.17,4.48v-2.88H88a.37.37,0,0,0-.29.1.46.46,0,0,0-.09.31v2.06a.46.46,0,0,0,.09.31.4.4,0,0,0,.29.1Z"/><path d="M84.59,295.45a.28.28,0,0,1,.22.07.32.32,0,0,1,.07.23v1a.29.29,0,0,1-.07.23.28.28,0,0,1-.22.08h-.8v2.84h.8a.28.28,0,0,1,.22.07.32.32,0,0,1,.07.23v1a.3.3,0,0,1-.07.23.28.28,0,0,1-.22.07H81.16a.28.28,0,0,1-.22-.07.3.3,0,0,1-.07-.23v-1a.32.32,0,0,1,.07-.23.28.28,0,0,1,.22-.07h.78v-2.84h-.78a.28.28,0,0,1-.22-.08.29.29,0,0,1-.07-.23v-1a.32.32,0,0,1,.07-.23.28.28,0,0,1,.22-.07Z"/><path d="M75.45,295.45H78a2.23,2.23,0,0,1,1.49.42,1.64,1.64,0,0,1,.49,1.31v2.64a1.62,1.62,0,0,1-.49,1.3,2.23,2.23,0,0,1-1.49.42H76a.29.29,0,0,1-.22-.07.3.3,0,0,1-.07-.23v-1a.32.32,0,0,1,.07-.23.29.29,0,0,1,.22-.07h1.68a.56.56,0,0,0,.37-.11.39.39,0,0,0,.12-.31v-2a.46.46,0,0,0-.09-.31.37.37,0,0,0-.28-.1H77v1.32a.35.35,0,0,1-.07.23.29.29,0,0,1-.22.07H75.45a.28.28,0,0,1-.22-.07.3.3,0,0,1-.07-.23v-2.62a.32.32,0,0,1,.07-.23A.28.28,0,0,1,75.45,295.45Z"/><path d="M74,295.45a.3.3,0,0,1,.23.07.37.37,0,0,1,.06.23v1a.33.33,0,0,1-.06.23.3.3,0,0,1-.23.08h-.79v2.84H74a.3.3,0,0,1,.23.07.37.37,0,0,1,.06.23v1a.35.35,0,0,1-.06.23.3.3,0,0,1-.23.07H70.58a.29.29,0,0,1-.22-.07.3.3,0,0,1-.07-.23v-1a.32.32,0,0,1,.07-.23.29.29,0,0,1,.22-.07h.78v-2.84h-.78a.29.29,0,0,1-.22-.08.29.29,0,0,1-.07-.23v-1a.32.32,0,0,1,.07-.23.29.29,0,0,1,.22-.07Z"/><path d="M66.56,295.45h1.31a.29.29,0,0,1,.22.07.37.37,0,0,1,.07.23v4.16h1.18a.28.28,0,0,1,.22.07.32.32,0,0,1,.07.23v1a.3.3,0,0,1-.07.23.28.28,0,0,1-.22.07H65.09a.28.28,0,0,1-.22-.07.3.3,0,0,1-.07-.23v-1a.32.32,0,0,1,.07-.23.28.28,0,0,1,.22-.07h1.18v-4.16a.32.32,0,0,1,.07-.23A.29.29,0,0,1,66.56,295.45Z"/><path d="M62.69,295.75a.37.37,0,0,1,.07-.23.29.29,0,0,1,.22-.07h1.19a.28.28,0,0,1,.22.07.32.32,0,0,1,.07.23V298a2.67,2.67,0,0,1-.08.58,7.68,7.68,0,0,1-.23.77l-.71,1.92a.44.44,0,0,1-.14.22.54.54,0,0,1-.27.06H60.87a.5.5,0,0,1-.26-.06.53.53,0,0,1-.15-.22l-.7-1.92a8,8,0,0,1-.24-.77,2.6,2.6,0,0,1-.07-.58v-2.24a.32.32,0,0,1,.07-.23.28.28,0,0,1,.22-.07H61a.33.33,0,0,1,.24.07.32.32,0,0,1,.08.23v1.19h1.42Zm-.45,4,.37-1.29H61.35l.38,1.29a.3.3,0,0,0,.07.11.11.11,0,0,0,.08,0h.2l.09,0Z"/><path d="M54.07,295.45h4.1a.29.29,0,0,1,.22.07.37.37,0,0,1,.07.23v5.49a.35.35,0,0,1-.07.23.29.29,0,0,1-.22.07H56.92a.28.28,0,0,1-.22-.07.3.3,0,0,1-.07-.23v-4.19H55.52v1.37a.33.33,0,0,1-.06.23.3.3,0,0,1-.23.07H54.07a.3.3,0,0,1-.23-.07.33.33,0,0,1-.06-.23v-2.67a.37.37,0,0,1,.06-.23A.3.3,0,0,1,54.07,295.45Z"/></g><g id="r1"><path d="M403.72,205.57h-1.25a.27.27,0,0,1-.22-.08.29.29,0,0,1-.07-.23v-5.48a.33.33,0,0,1,.07-.24.3.3,0,0,1,.22-.07h3.59a.32.32,0,0,1,.22.07.33.33,0,0,1,.07.24v1a.33.33,0,0,1-.07.24.28.28,0,0,1-.22.07H404V202h1.4a.29.29,0,0,1,.22.07.37.37,0,0,1,.07.23v1a.35.35,0,0,1-.07.23.29.29,0,0,1-.22.07H404v1.67a.33.33,0,0,1-.07.23A.29.29,0,0,1,403.72,205.57Z"/><path d="M408.65,205.57h-1.2a.3.3,0,0,1-.23-.08.33.33,0,0,1-.06-.23v-5.48a.38.38,0,0,1,.06-.24.35.35,0,0,1,.23-.07h1.29a.38.38,0,0,1,.22.06.55.55,0,0,1,.15.2l.73,1.38.07.11a.09.09,0,0,0,.07,0h.08a.09.09,0,0,0,.07,0l.07-.11.72-1.38a.56.56,0,0,1,.16-.2.33.33,0,0,1,.21-.06h1.3a.35.35,0,0,1,.23.07.38.38,0,0,1,.06.24v5.48a.33.33,0,0,1-.06.23.3.3,0,0,1-.23.08h-1.24a.29.29,0,0,1-.22-.08.33.33,0,0,1-.07-.23v-3l-.47.93a.51.51,0,0,1-.18.2.46.46,0,0,1-.25.07h-.32a.53.53,0,0,1-.26-.07.58.58,0,0,1-.17-.2l-.47-.93v3a.33.33,0,0,1-.07.23A.29.29,0,0,1,408.65,205.57Z"/><path d="M418.81,205.57H416.1a.28.28,0,0,1-.22-.08.29.29,0,0,1-.07-.23v-5.48a.33.33,0,0,1,.07-.24.32.32,0,0,1,.22-.07h2.71a2.22,2.22,0,0,1,1.5.43,1.64,1.64,0,0,1,.49,1.3v2.64a1.64,1.64,0,0,1-.49,1.3A2.22,2.22,0,0,1,418.81,205.57Zm-1.17-4.48V204h1a.4.4,0,0,0,.28-.1.49.49,0,0,0,.09-.32V201.5a.43.43,0,0,0-.09-.31.36.36,0,0,0-.28-.1Z"/><path d="M422,205.57a.28.28,0,0,1-.22-.08.29.29,0,0,1-.07-.23v-1a.32.32,0,0,1,.07-.23A.28.28,0,0,1,422,204h.8v-2.84H422a.28.28,0,0,1-.22-.08.29.29,0,0,1-.07-.23v-1a.33.33,0,0,1,.07-.24.32.32,0,0,1,.22-.07h3.43a.32.32,0,0,1,.22.07.33.33,0,0,1,.07.24v1a.29.29,0,0,1-.07.23.28.28,0,0,1-.22.08h-.78V204h.78a.28.28,0,0,1,.22.07.32.32,0,0,1,.07.23v1a.29.29,0,0,1-.07.23.28.28,0,0,1-.22.08Z"/><path d="M431.12,205.57h-2.53a2.2,2.2,0,0,1-1.5-.43,1.64,1.64,0,0,1-.49-1.3V201.2a1.64,1.64,0,0,1,.49-1.3,2.2,2.2,0,0,1,1.5-.43h2a.32.32,0,0,1,.22.07.33.33,0,0,1,.07.24v1a.29.29,0,0,1-.07.23.28.28,0,0,1-.22.08h-1.68a.56.56,0,0,0-.37.1.41.41,0,0,0-.12.32v2a.49.49,0,0,0,.09.32.41.41,0,0,0,.28.1h.78v-1.32a.38.38,0,0,1,.07-.24.34.34,0,0,1,.22-.07h1.25a.3.3,0,0,1,.22.07.33.33,0,0,1,.07.24v2.61a.29.29,0,0,1-.07.23A.27.27,0,0,1,431.12,205.57Z"/><path d="M432.56,205.57a.28.28,0,0,1-.22-.08.29.29,0,0,1-.07-.23v-1a.32.32,0,0,1,.07-.23.28.28,0,0,1,.22-.07h.79v-2.84h-.79a.28.28,0,0,1-.22-.08.29.29,0,0,1-.07-.23v-1a.33.33,0,0,1,.07-.24.32.32,0,0,1,.22-.07H436a.32.32,0,0,1,.22.07.33.33,0,0,1,.07.24v1a.29.29,0,0,1-.07.23.28.28,0,0,1-.22.08h-.78V204H436a.28.28,0,0,1,.22.07.32.32,0,0,1,.07.23v1a.29.29,0,0,1-.07.23.28.28,0,0,1-.22.08Z"/><path d="M440,205.57H438.7a.29.29,0,0,1-.22-.08.33.33,0,0,1-.07-.23v-4.15h-1.18A.28.28,0,0,1,437,201a.29.29,0,0,1-.07-.23v-1a.33.33,0,0,1,.07-.24.32.32,0,0,1,.22-.07h4.25a.35.35,0,0,1,.23.07.38.38,0,0,1,.06.24v1a.33.33,0,0,1-.06.23.3.3,0,0,1-.23.08H440.3v4.15a.29.29,0,0,1-.07.23A.28.28,0,0,1,440,205.57Z"/><path d="M443.88,205.26a.33.33,0,0,1-.07.23.29.29,0,0,1-.22.08H442.4a.29.29,0,0,1-.22-.08.29.29,0,0,1-.07-.23V203a2.75,2.75,0,0,1,.08-.59,6.43,6.43,0,0,1,.24-.77l.7-1.92a.41.41,0,0,1,.15-.21.47.47,0,0,1,.26-.07h2.17a.49.49,0,0,1,.25.07.41.41,0,0,1,.15.21l.7,1.92a6.43,6.43,0,0,1,.24.77,2.68,2.68,0,0,1,.07.59v2.23a.29.29,0,0,1-.07.23.27.27,0,0,1-.22.08h-1.21a.33.33,0,0,1-.24-.08.29.29,0,0,1-.08-.23v-1.18h-1.42Zm.46-4-.38,1.29h1.26l-.38-1.29a.23.23,0,0,0-.07-.11.11.11,0,0,0-.08,0h-.2l-.09,0A.36.36,0,0,0,444.34,201.25Z"/><path d="M452.5,205.57h-4.1a.29.29,0,0,1-.22-.08.33.33,0,0,1-.07-.23v-5.48a.38.38,0,0,1,.07-.24.34.34,0,0,1,.22-.07h1.25a.32.32,0,0,1,.22.07.33.33,0,0,1,.07.24V204h1.11V202.6a.33.33,0,0,1,.07-.24.3.3,0,0,1,.22-.07h1.16a.35.35,0,0,1,.23.07.38.38,0,0,1,.06.24v2.66a.33.33,0,0,1-.06.23A.3.3,0,0,1,452.5,205.57Z"/><path d="M451,295.45h1.25a.28.28,0,0,1,.22.07.32.32,0,0,1,.07.23v5.49a.3.3,0,0,1-.07.23.28.28,0,0,1-.22.07h-3.59a.28.28,0,0,1-.22-.07.3.3,0,0,1-.07-.23v-1a.3.3,0,0,1,.07-.23.28.28,0,0,1,.22-.07h2.05v-.88h-1.4a.28.28,0,0,1-.22-.08.29.29,0,0,1-.07-.23v-1a.33.33,0,0,1,.07-.24.32.32,0,0,1,.22-.07h1.4v-1.67a.37.37,0,0,1,.07-.23A.29.29,0,0,1,451,295.45Z"/><path d="M446.05,295.45h1.2a.28.28,0,0,1,.22.07.32.32,0,0,1,.07.23v5.49a.3.3,0,0,1-.07.23.28.28,0,0,1-.22.07H446a.38.38,0,0,1-.22-.06.64.64,0,0,1-.16-.19l-.72-1.38a.72.72,0,0,0-.07-.11.1.1,0,0,0-.08,0h-.07a.08.08,0,0,0-.07,0,.35.35,0,0,0-.07.11l-.72,1.38a.52.52,0,0,1-.16.19.33.33,0,0,1-.21.06H442.1a.29.29,0,0,1-.22-.07.35.35,0,0,1-.07-.23v-5.49a.37.37,0,0,1,.07-.23.29.29,0,0,1,.22-.07h1.24a.3.3,0,0,1,.23.07.37.37,0,0,1,.06.23v3l.48-.92a.62.62,0,0,1,.17-.21.53.53,0,0,1,.26-.06h.32a.46.46,0,0,1,.25.06.54.54,0,0,1,.18.21l.47.92v-3a.32.32,0,0,1,.07-.23A.29.29,0,0,1,446.05,295.45Z"/><path d="M435.88,295.45h2.72a.28.28,0,0,1,.22.07.32.32,0,0,1,.07.23v5.49a.3.3,0,0,1-.07.23.28.28,0,0,1-.22.07h-2.72a2.25,2.25,0,0,1-1.49-.42,1.65,1.65,0,0,1-.49-1.3v-2.64a1.67,1.67,0,0,1,.49-1.31A2.25,2.25,0,0,1,435.88,295.45Zm1.18,4.48v-2.88h-1a.34.34,0,0,0-.28.1.41.41,0,0,0-.1.31v2.06a.41.41,0,0,0,.1.31.38.38,0,0,0,.28.1Z"/><path d="M432.72,295.45a.29.29,0,0,1,.22.07.32.32,0,0,1,.07.23v1a.29.29,0,0,1-.07.23.29.29,0,0,1-.22.08h-.8v2.84h.8a.29.29,0,0,1,.22.07.32.32,0,0,1,.07.23v1a.3.3,0,0,1-.07.23.29.29,0,0,1-.22.07h-3.43a.26.26,0,0,1-.22-.07.3.3,0,0,1-.07-.23v-1a.32.32,0,0,1,.07-.23.26.26,0,0,1,.22-.07h.78v-2.84h-.78a.27.27,0,0,1-.22-.08.29.29,0,0,1-.07-.23v-1a.32.32,0,0,1,.07-.23.26.26,0,0,1,.22-.07Z"/><path d="M423.57,295.45h2.54a2.28,2.28,0,0,1,1.5.42,1.67,1.67,0,0,1,.48,1.31v2.64a1.65,1.65,0,0,1-.48,1.3,2.28,2.28,0,0,1-1.5.42h-2a.28.28,0,0,1-.22-.07.3.3,0,0,1-.07-.23v-1a.32.32,0,0,1,.07-.23.28.28,0,0,1,.22-.07h1.67a.54.54,0,0,0,.37-.11.36.36,0,0,0,.13-.31v-2a.46.46,0,0,0-.1-.31.34.34,0,0,0-.28-.1h-.78v1.32a.3.3,0,0,1-.07.23.26.26,0,0,1-.22.07h-1.25a.29.29,0,0,1-.22-.07.35.35,0,0,1-.07-.23v-2.62a.37.37,0,0,1,.07-.23A.29.29,0,0,1,423.57,295.45Z"/><path d="M422.14,295.45a.28.28,0,0,1,.22.07.32.32,0,0,1,.07.23v1a.29.29,0,0,1-.07.23.28.28,0,0,1-.22.08h-.8v2.84h.8a.28.28,0,0,1,.22.07.32.32,0,0,1,.07.23v1a.3.3,0,0,1-.07.23.28.28,0,0,1-.22.07h-3.43a.28.28,0,0,1-.22-.07.3.3,0,0,1-.07-.23v-1a.32.32,0,0,1,.07-.23.28.28,0,0,1,.22-.07h.78v-2.84h-.78a.28.28,0,0,1-.22-.08.29.29,0,0,1-.07-.23v-1a.32.32,0,0,1,.07-.23.28.28,0,0,1,.22-.07Z"/><path d="M414.69,295.45H416a.3.3,0,0,1,.23.07.37.37,0,0,1,.06.23v4.16h1.19a.29.29,0,0,1,.22.07.32.32,0,0,1,.07.23v1a.3.3,0,0,1-.07.23.29.29,0,0,1-.22.07h-4.26a.29.29,0,0,1-.22-.07.35.35,0,0,1-.07-.23v-1A.37.37,0,0,1,413,300a.29.29,0,0,1,.22-.07h1.19v-4.16a.32.32,0,0,1,.07-.23A.28.28,0,0,1,414.69,295.45Z"/><path d="M410.82,295.75a.32.32,0,0,1,.07-.23.29.29,0,0,1,.22-.07h1.19a.29.29,0,0,1,.22.07.37.37,0,0,1,.07.23V298a2.67,2.67,0,0,1-.08.58,5.92,5.92,0,0,1-.24.77l-.7,1.92a.4.4,0,0,1-.15.22.5.5,0,0,1-.26.06H409a.49.49,0,0,1-.25-.06.4.4,0,0,1-.15-.22l-.7-1.92a5.92,5.92,0,0,1-.24-.77,2.67,2.67,0,0,1-.08-.58v-2.24a.37.37,0,0,1,.07-.23.29.29,0,0,1,.22-.07h1.22a.33.33,0,0,1,.24.07.32.32,0,0,1,.08.23v1.19h1.42Zm-.46,4,.38-1.29h-1.26l.37,1.29.07.11.09,0h.2a.11.11,0,0,0,.08,0A.3.3,0,0,0,410.36,299.77Z"/><path d="M402.19,295.45h4.1a.3.3,0,0,1,.23.07.37.37,0,0,1,.06.23v5.49a.35.35,0,0,1-.06.23.3.3,0,0,1-.23.07H405a.29.29,0,0,1-.22-.07.35.35,0,0,1-.07-.23v-4.19h-1.1v1.37a.29.29,0,0,1-.07.23.28.28,0,0,1-.22.07h-1.17a.29.29,0,0,1-.22-.07.33.33,0,0,1-.07-.23v-2.67a.37.37,0,0,1,.07-.23A.29.29,0,0,1,402.19,295.45Z"/></g><g id="l2"><path d="M143,205.57h-1.25a.27.27,0,0,1-.22-.08.29.29,0,0,1-.07-.23v-5.48a.33.33,0,0,1,.07-.24.3.3,0,0,1,.22-.07h3.59a.32.32,0,0,1,.22.07.33.33,0,0,1,.07.24v1a.33.33,0,0,1-.07.24.28.28,0,0,1-.22.07h-2V202h1.4a.29.29,0,0,1,.22.07.37.37,0,0,1,.07.23v1a.35.35,0,0,1-.07.23.29.29,0,0,1-.22.07h-1.4v1.67a.33.33,0,0,1-.07.23A.29.29,0,0,1,143,205.57Z"/><path d="M148,205.57h-1.2a.3.3,0,0,1-.23-.08.33.33,0,0,1-.06-.23v-5.48a.38.38,0,0,1,.06-.24.35.35,0,0,1,.23-.07h1.29a.38.38,0,0,1,.22.06.69.69,0,0,1,.15.2l.73,1.38.07.11a.09.09,0,0,0,.07,0h.08a.09.09,0,0,0,.07,0l.07-.11.72-1.38a.56.56,0,0,1,.16-.2.33.33,0,0,1,.21-.06h1.3a.35.35,0,0,1,.23.07.38.38,0,0,1,.06.24v5.48a.33.33,0,0,1-.06.23.3.3,0,0,1-.23.08h-1.24a.29.29,0,0,1-.22-.08.33.33,0,0,1-.07-.23v-3l-.47.93a.51.51,0,0,1-.18.2.46.46,0,0,1-.25.07h-.32a.53.53,0,0,1-.26-.07.58.58,0,0,1-.17-.2l-.47-.93v3a.33.33,0,0,1-.07.23A.29.29,0,0,1,148,205.57Z"/><path d="M158.13,205.57h-2.71a.28.28,0,0,1-.22-.08.29.29,0,0,1-.07-.23v-5.48a.33.33,0,0,1,.07-.24.32.32,0,0,1,.22-.07h2.71a2.22,2.22,0,0,1,1.5.43,1.63,1.63,0,0,1,.48,1.3v2.64a1.63,1.63,0,0,1-.48,1.3A2.22,2.22,0,0,1,158.13,205.57ZM157,201.09V204h1a.4.4,0,0,0,.28-.1.49.49,0,0,0,.09-.32V201.5a.43.43,0,0,0-.09-.31.36.36,0,0,0-.28-.1Z"/><path d="M161.3,205.57a.28.28,0,0,1-.22-.08.29.29,0,0,1-.07-.23v-1a.32.32,0,0,1,.07-.23.28.28,0,0,1,.22-.07h.8v-2.84h-.8a.28.28,0,0,1-.22-.08.29.29,0,0,1-.07-.23v-1a.33.33,0,0,1,.07-.24.32.32,0,0,1,.22-.07h3.43a.32.32,0,0,1,.22.07.33.33,0,0,1,.07.24v1a.29.29,0,0,1-.07.23.28.28,0,0,1-.22.08H164V204h.78a.28.28,0,0,1,.22.07.32.32,0,0,1,.07.23v1a.29.29,0,0,1-.07.23.28.28,0,0,1-.22.08Z"/><path d="M170.44,205.57h-2.53a2.2,2.2,0,0,1-1.5-.43,1.64,1.64,0,0,1-.49-1.3V201.2a1.64,1.64,0,0,1,.49-1.3,2.2,2.2,0,0,1,1.5-.43h2a.32.32,0,0,1,.22.07.33.33,0,0,1,.07.24v1a.29.29,0,0,1-.07.23.28.28,0,0,1-.22.08h-1.68a.56.56,0,0,0-.37.1.41.41,0,0,0-.12.32v2a.49.49,0,0,0,.09.32.41.41,0,0,0,.28.1h.78v-1.32a.38.38,0,0,1,.07-.24.34.34,0,0,1,.22-.07h1.25a.3.3,0,0,1,.22.07.33.33,0,0,1,.07.24v2.61a.29.29,0,0,1-.07.23A.27.27,0,0,1,170.44,205.57Z"/><path d="M171.88,205.57a.28.28,0,0,1-.22-.08.29.29,0,0,1-.07-.23v-1a.32.32,0,0,1,.07-.23.28.28,0,0,1,.22-.07h.79v-2.84h-.79a.28.28,0,0,1-.22-.08.29.29,0,0,1-.07-.23v-1a.33.33,0,0,1,.07-.24.32.32,0,0,1,.22-.07h3.43a.32.32,0,0,1,.22.07.33.33,0,0,1,.07.24v1a.29.29,0,0,1-.07.23.28.28,0,0,1-.22.08h-.78V204h.78a.28.28,0,0,1,.22.07.32.32,0,0,1,.07.23v1a.29.29,0,0,1-.07.23.28.28,0,0,1-.22.08Z"/><path d="M179.33,205.57H178a.29.29,0,0,1-.22-.08.33.33,0,0,1-.07-.23v-4.15h-1.18a.28.28,0,0,1-.22-.08.29.29,0,0,1-.07-.23v-1a.33.33,0,0,1,.07-.24.32.32,0,0,1,.22-.07h4.25a.35.35,0,0,1,.23.07.38.38,0,0,1,.06.24v1a.33.33,0,0,1-.06.23.3.3,0,0,1-.23.08h-1.18v4.15a.29.29,0,0,1-.07.23A.28.28,0,0,1,179.33,205.57Z"/><path d="M183.2,205.26a.33.33,0,0,1-.07.23.29.29,0,0,1-.22.08h-1.19a.29.29,0,0,1-.22-.08.29.29,0,0,1-.07-.23V203a2.75,2.75,0,0,1,.08-.59,6.43,6.43,0,0,1,.24-.77l.7-1.92a.41.41,0,0,1,.15-.21.47.47,0,0,1,.26-.07H185a.49.49,0,0,1,.25.07.41.41,0,0,1,.15.21l.7,1.92a6.43,6.43,0,0,1,.24.77,2.68,2.68,0,0,1,.07.59v2.23a.29.29,0,0,1-.07.23.28.28,0,0,1-.22.08h-1.21a.33.33,0,0,1-.24-.08.29.29,0,0,1-.08-.23v-1.18H183.2Zm.46-4-.38,1.29h1.26l-.38-1.29a.23.23,0,0,0-.07-.11.11.11,0,0,0-.08,0h-.2l-.09,0A.36.36,0,0,0,183.66,201.25Z"/><path d="M191.82,205.57h-4.1a.29.29,0,0,1-.22-.08.33.33,0,0,1-.07-.23v-5.48a.38.38,0,0,1,.07-.24.34.34,0,0,1,.22-.07H189a.32.32,0,0,1,.22.07.33.33,0,0,1,.07.24V204h1.11V202.6a.33.33,0,0,1,.07-.24.3.3,0,0,1,.22-.07h1.16a.35.35,0,0,1,.23.07.38.38,0,0,1,.06.24v2.66a.33.33,0,0,1-.06.23A.3.3,0,0,1,191.82,205.57Z"/><path d="M190.3,295.45h1.25a.28.28,0,0,1,.22.07.32.32,0,0,1,.07.23v5.49a.3.3,0,0,1-.07.23.28.28,0,0,1-.22.07H188a.28.28,0,0,1-.22-.07.3.3,0,0,1-.07-.23v-1a.3.3,0,0,1,.07-.23.28.28,0,0,1,.22-.07h2v-.88h-1.4a.28.28,0,0,1-.22-.08.29.29,0,0,1-.07-.23v-1a.33.33,0,0,1,.07-.24.32.32,0,0,1,.22-.07H190v-1.67a.37.37,0,0,1,.07-.23A.29.29,0,0,1,190.3,295.45Z"/><path d="M185.37,295.45h1.2a.28.28,0,0,1,.22.07.32.32,0,0,1,.07.23v5.49a.3.3,0,0,1-.07.23.28.28,0,0,1-.22.07h-1.29a.38.38,0,0,1-.22-.06.64.64,0,0,1-.16-.19l-.72-1.38a.72.72,0,0,0-.07-.11.1.1,0,0,0-.08,0H184a.08.08,0,0,0-.07,0,.35.35,0,0,0-.07.11l-.72,1.38a.52.52,0,0,1-.16.19.33.33,0,0,1-.21.06h-1.31a.29.29,0,0,1-.22-.07.35.35,0,0,1-.07-.23v-5.49a.37.37,0,0,1,.07-.23.29.29,0,0,1,.22-.07h1.24a.3.3,0,0,1,.23.07.37.37,0,0,1,.06.23v3l.48-.92a.62.62,0,0,1,.17-.21.53.53,0,0,1,.26-.06h.32a.46.46,0,0,1,.25.06.54.54,0,0,1,.18.21l.47.92v-3a.32.32,0,0,1,.07-.23A.29.29,0,0,1,185.37,295.45Z"/><path d="M175.2,295.45h2.72a.28.28,0,0,1,.22.07.32.32,0,0,1,.07.23v5.49a.3.3,0,0,1-.07.23.28.28,0,0,1-.22.07H175.2a2.25,2.25,0,0,1-1.49-.42,1.65,1.65,0,0,1-.49-1.3v-2.64a1.67,1.67,0,0,1,.49-1.31A2.25,2.25,0,0,1,175.2,295.45Zm1.18,4.48v-2.88h-1a.34.34,0,0,0-.28.1.41.41,0,0,0-.1.31v2.06a.41.41,0,0,0,.1.31.38.38,0,0,0,.28.1Z"/><path d="M172,295.45a.29.29,0,0,1,.22.07.32.32,0,0,1,.07.23v1a.29.29,0,0,1-.07.23.29.29,0,0,1-.22.08h-.8v2.84h.8a.29.29,0,0,1,.22.07.32.32,0,0,1,.07.23v1a.3.3,0,0,1-.07.23.29.29,0,0,1-.22.07h-3.43a.26.26,0,0,1-.22-.07.3.3,0,0,1-.07-.23v-1a.32.32,0,0,1,.07-.23.26.26,0,0,1,.22-.07h.78v-2.84h-.78a.27.27,0,0,1-.22-.08.29.29,0,0,1-.07-.23v-1a.32.32,0,0,1,.07-.23.26.26,0,0,1,.22-.07Z"/><path d="M162.89,295.45h2.54a2.28,2.28,0,0,1,1.5.42,1.67,1.67,0,0,1,.48,1.31v2.64a1.65,1.65,0,0,1-.48,1.3,2.28,2.28,0,0,1-1.5.42h-2a.28.28,0,0,1-.22-.07.3.3,0,0,1-.07-.23v-1a.32.32,0,0,1,.07-.23.28.28,0,0,1,.22-.07h1.67a.54.54,0,0,0,.37-.11.36.36,0,0,0,.13-.31v-2a.46.46,0,0,0-.1-.31.34.34,0,0,0-.28-.1h-.78v1.32a.3.3,0,0,1-.07.23.26.26,0,0,1-.22.07h-1.25a.29.29,0,0,1-.22-.07.35.35,0,0,1-.07-.23v-2.62a.37.37,0,0,1,.07-.23A.29.29,0,0,1,162.89,295.45Z"/><path d="M161.46,295.45a.28.28,0,0,1,.22.07.32.32,0,0,1,.07.23v1a.29.29,0,0,1-.07.23.28.28,0,0,1-.22.08h-.8v2.84h.8a.28.28,0,0,1,.22.07.32.32,0,0,1,.07.23v1a.3.3,0,0,1-.07.23.28.28,0,0,1-.22.07H158a.28.28,0,0,1-.22-.07.3.3,0,0,1-.07-.23v-1a.32.32,0,0,1,.07-.23.28.28,0,0,1,.22-.07h.78v-2.84H158a.28.28,0,0,1-.22-.08.29.29,0,0,1-.07-.23v-1a.32.32,0,0,1,.07-.23.28.28,0,0,1,.22-.07Z"/><path d="M154,295.45h1.3a.3.3,0,0,1,.23.07.37.37,0,0,1,.06.23v4.16h1.19a.29.29,0,0,1,.22.07.32.32,0,0,1,.07.23v1a.3.3,0,0,1-.07.23.29.29,0,0,1-.22.07h-4.26a.29.29,0,0,1-.22-.07.35.35,0,0,1-.07-.23v-1a.37.37,0,0,1,.07-.23.29.29,0,0,1,.22-.07h1.19v-4.16a.32.32,0,0,1,.07-.23A.28.28,0,0,1,154,295.45Z"/><path d="M150.14,295.75a.32.32,0,0,1,.07-.23.29.29,0,0,1,.22-.07h1.19a.29.29,0,0,1,.22.07.37.37,0,0,1,.07.23V298a2.67,2.67,0,0,1-.08.58,5.92,5.92,0,0,1-.24.77l-.7,1.92a.4.4,0,0,1-.15.22.5.5,0,0,1-.26.06h-2.17a.49.49,0,0,1-.25-.06.4.4,0,0,1-.15-.22l-.7-1.92a5.92,5.92,0,0,1-.24-.77,2.67,2.67,0,0,1-.08-.58v-2.24a.37.37,0,0,1,.07-.23.29.29,0,0,1,.22-.07h1.22a.33.33,0,0,1,.24.07.32.32,0,0,1,.08.23v1.19h1.42Zm-.46,4,.38-1.29H148.8l.37,1.29.07.11.09,0h.2a.11.11,0,0,0,.08,0A.3.3,0,0,0,149.68,299.77Z"/><path d="M141.51,295.45h4.1a.3.3,0,0,1,.23.07.37.37,0,0,1,.06.23v5.49a.35.35,0,0,1-.06.23.3.3,0,0,1-.23.07h-1.25a.29.29,0,0,1-.22-.07.35.35,0,0,1-.07-.23v-4.19H143v1.37a.29.29,0,0,1-.07.23.28.28,0,0,1-.22.07h-1.17a.29.29,0,0,1-.22-.07.33.33,0,0,1-.07-.23v-2.67a.37.37,0,0,1,.07-.23A.29.29,0,0,1,141.51,295.45Z"/></g><g id="r2"><path d="M319.65,205.57h-1.24a.3.3,0,0,1-.23-.08.33.33,0,0,1-.06-.23v-5.48a.38.38,0,0,1,.06-.24.35.35,0,0,1,.23-.07H322a.34.34,0,0,1,.22.07.33.33,0,0,1,.07.24v1a.33.33,0,0,1-.07.24.29.29,0,0,1-.22.07h-2.06V202h1.41a.29.29,0,0,1,.22.07.37.37,0,0,1,.07.23v1a.35.35,0,0,1-.07.23.29.29,0,0,1-.22.07h-1.41v1.67a.33.33,0,0,1-.06.23A.3.3,0,0,1,319.65,205.57Z"/><path d="M324.58,205.57h-1.2a.29.29,0,0,1-.22-.08.33.33,0,0,1-.07-.23v-5.48a.38.38,0,0,1,.07-.24.34.34,0,0,1,.22-.07h1.3a.33.33,0,0,1,.21.06.56.56,0,0,1,.16.2l.73,1.38a.52.52,0,0,0,.07.11.08.08,0,0,0,.07,0H326a.1.1,0,0,0,.08,0l.07-.11.72-1.38a.55.55,0,0,1,.15-.2.38.38,0,0,1,.22-.06h1.3a.32.32,0,0,1,.22.07.33.33,0,0,1,.07.24v5.48a.29.29,0,0,1-.07.23.28.28,0,0,1-.22.08h-1.24a.29.29,0,0,1-.22-.08.29.29,0,0,1-.07-.23v-3l-.47.93a.51.51,0,0,1-.18.2.46.46,0,0,1-.25.07h-.32a.5.5,0,0,1-.26-.07.58.58,0,0,1-.17-.2l-.48-.93v3a.33.33,0,0,1-.06.23A.3.3,0,0,1,324.58,205.57Z"/><path d="M334.75,205.57H332a.27.27,0,0,1-.22-.08.29.29,0,0,1-.07-.23v-5.48a.33.33,0,0,1,.07-.24.3.3,0,0,1,.22-.07h2.71a2.22,2.22,0,0,1,1.5.43,1.63,1.63,0,0,1,.48,1.3v2.64a1.63,1.63,0,0,1-.48,1.3A2.22,2.22,0,0,1,334.75,205.57Zm-1.17-4.48V204h.95a.4.4,0,0,0,.29-.1.49.49,0,0,0,.09-.32V201.5a.43.43,0,0,0-.09-.31.37.37,0,0,0-.29-.1Z"/><path d="M337.92,205.57a.28.28,0,0,1-.22-.08.29.29,0,0,1-.07-.23v-1a.32.32,0,0,1,.07-.23.28.28,0,0,1,.22-.07h.8v-2.84h-.8a.28.28,0,0,1-.22-.08.29.29,0,0,1-.07-.23v-1a.33.33,0,0,1,.07-.24.32.32,0,0,1,.22-.07h3.43a.32.32,0,0,1,.22.07.33.33,0,0,1,.07.24v1a.29.29,0,0,1-.07.23.28.28,0,0,1-.22.08h-.78V204h.78a.28.28,0,0,1,.22.07.32.32,0,0,1,.07.23v1a.29.29,0,0,1-.07.23.28.28,0,0,1-.22.08Z"/><path d="M347.06,205.57h-2.54a2.17,2.17,0,0,1-1.49-.43,1.6,1.6,0,0,1-.49-1.3V201.2a1.6,1.6,0,0,1,.49-1.3,2.17,2.17,0,0,1,1.49-.43h2a.34.34,0,0,1,.22.07.33.33,0,0,1,.07.24v1a.29.29,0,0,1-.07.23.29.29,0,0,1-.22.08h-1.68a.56.56,0,0,0-.37.1.41.41,0,0,0-.12.32v2a.49.49,0,0,0,.09.32.41.41,0,0,0,.28.1h.78v-1.32a.38.38,0,0,1,.07-.24.34.34,0,0,1,.22-.07h1.25a.32.32,0,0,1,.22.07.33.33,0,0,1,.07.24v2.61a.29.29,0,0,1-.07.23A.28.28,0,0,1,347.06,205.57Z"/><path d="M348.5,205.57a.3.3,0,0,1-.23-.08.33.33,0,0,1-.06-.23v-1a.37.37,0,0,1,.06-.23.3.3,0,0,1,.23-.07h.79v-2.84h-.79a.3.3,0,0,1-.23-.08.33.33,0,0,1-.06-.23v-1a.38.38,0,0,1,.06-.24.35.35,0,0,1,.23-.07h3.43a.34.34,0,0,1,.22.07.38.38,0,0,1,.07.24v1a.33.33,0,0,1-.07.23.29.29,0,0,1-.22.08h-.78V204h.78a.29.29,0,0,1,.22.07.37.37,0,0,1,.07.23v1a.33.33,0,0,1-.07.23.29.29,0,0,1-.22.08Z"/><path d="M356,205.57h-1.31a.29.29,0,0,1-.22-.08.33.33,0,0,1-.07-.23v-4.15h-1.18A.28.28,0,0,1,353,201a.29.29,0,0,1-.07-.23v-1a.33.33,0,0,1,.07-.24.32.32,0,0,1,.22-.07h4.25a.32.32,0,0,1,.22.07.33.33,0,0,1,.07.24v1a.29.29,0,0,1-.07.23.28.28,0,0,1-.22.08h-1.18v4.15a.33.33,0,0,1-.07.23A.29.29,0,0,1,356,205.57Z"/><path d="M359.81,205.26a.33.33,0,0,1-.06.23.3.3,0,0,1-.23.08h-1.18a.28.28,0,0,1-.22-.08.29.29,0,0,1-.07-.23V203a2.75,2.75,0,0,1,.08-.59c.05-.22.13-.47.23-.77l.71-1.92a.46.46,0,0,1,.14-.21.54.54,0,0,1,.27-.07h2.16a.5.5,0,0,1,.26.07.57.57,0,0,1,.15.21l.7,1.92c.1.3.18.55.23.77a2.24,2.24,0,0,1,.08.59v2.23a.29.29,0,0,1-.07.23.28.28,0,0,1-.22.08h-1.21a.33.33,0,0,1-.24-.08.29.29,0,0,1-.08-.23v-1.18h-1.43Zm.46-4-.37,1.29h1.26l-.38-1.29a.23.23,0,0,0-.07-.11.11.11,0,0,0-.08,0h-.2a.14.14,0,0,0-.09,0A.72.72,0,0,0,360.27,201.25Z"/><path d="M368.44,205.57h-4.1a.29.29,0,0,1-.22-.08.33.33,0,0,1-.07-.23v-5.48a.38.38,0,0,1,.07-.24.34.34,0,0,1,.22-.07h1.25a.32.32,0,0,1,.22.07.33.33,0,0,1,.07.24V204H367V202.6a.38.38,0,0,1,.06-.24.35.35,0,0,1,.23-.07h1.16a.3.3,0,0,1,.22.07.33.33,0,0,1,.07.24v2.66a.29.29,0,0,1-.07.23A.27.27,0,0,1,368.44,205.57Z"/><path d="M366.92,295.45h1.25a.28.28,0,0,1,.22.07.32.32,0,0,1,.07.23v5.49a.3.3,0,0,1-.07.23.28.28,0,0,1-.22.07h-3.59a.3.3,0,0,1-.23-.07.35.35,0,0,1-.06-.23v-1a.35.35,0,0,1,.06-.23.3.3,0,0,1,.23-.07h2.05v-.88h-1.4A.28.28,0,0,1,365,299a.29.29,0,0,1-.07-.23v-1a.33.33,0,0,1,.07-.24.32.32,0,0,1,.22-.07h1.4v-1.67a.32.32,0,0,1,.07-.23A.28.28,0,0,1,366.92,295.45Z"/><path d="M362,295.45h1.2a.28.28,0,0,1,.22.07.32.32,0,0,1,.07.23v5.49a.3.3,0,0,1-.07.23.28.28,0,0,1-.22.07h-1.3a.37.37,0,0,1-.21-.06.52.52,0,0,1-.16-.19l-.72-1.38a.72.72,0,0,0-.07-.11.1.1,0,0,0-.08,0h-.07a.11.11,0,0,0-.08,0,.91.91,0,0,0-.06.11l-.72,1.38a.52.52,0,0,1-.16.19.37.37,0,0,1-.21.06H358a.29.29,0,0,1-.22-.07.35.35,0,0,1-.07-.23v-5.49a.37.37,0,0,1,.07-.23.29.29,0,0,1,.22-.07h1.24a.26.26,0,0,1,.22.07.32.32,0,0,1,.07.23v3l.48-.92a.52.52,0,0,1,.17-.21.5.5,0,0,1,.26-.06h.32a.49.49,0,0,1,.25.06.45.45,0,0,1,.17.21l.48.92v-3a.32.32,0,0,1,.07-.23A.28.28,0,0,1,362,295.45Z"/><path d="M351.82,295.45h2.72a.29.29,0,0,1,.22.07.32.32,0,0,1,.07.23v5.49a.3.3,0,0,1-.07.23.29.29,0,0,1-.22.07h-2.72a2.23,2.23,0,0,1-1.49-.42,1.62,1.62,0,0,1-.49-1.3v-2.64a1.64,1.64,0,0,1,.49-1.31A2.23,2.23,0,0,1,351.82,295.45Zm1.18,4.48v-2.88h-1a.38.38,0,0,0-.29.1.46.46,0,0,0-.09.31v2.06a.46.46,0,0,0,.09.31.42.42,0,0,0,.29.1Z"/><path d="M348.66,295.45a.29.29,0,0,1,.22.07.37.37,0,0,1,.07.23v1a.33.33,0,0,1-.07.23.29.29,0,0,1-.22.08h-.8v2.84h.8a.29.29,0,0,1,.22.07.37.37,0,0,1,.07.23v1a.35.35,0,0,1-.07.23.29.29,0,0,1-.22.07h-3.43a.3.3,0,0,1-.23-.07.35.35,0,0,1-.06-.23v-1A.37.37,0,0,1,345,300a.3.3,0,0,1,.23-.07H346v-2.84h-.78A.3.3,0,0,1,345,297a.33.33,0,0,1-.06-.23v-1a.37.37,0,0,1,.06-.23.3.3,0,0,1,.23-.07Z"/><path d="M339.51,295.45h2.54a2.28,2.28,0,0,1,1.5.42,1.67,1.67,0,0,1,.48,1.31v2.64a1.65,1.65,0,0,1-.48,1.3,2.28,2.28,0,0,1-1.5.42h-2a.26.26,0,0,1-.22-.07.3.3,0,0,1-.07-.23v-1a.32.32,0,0,1,.07-.23.26.26,0,0,1,.22-.07h1.67a.54.54,0,0,0,.37-.11.39.39,0,0,0,.12-.31v-2a.46.46,0,0,0-.09-.31.34.34,0,0,0-.28-.1h-.78v1.32a.3.3,0,0,1-.07.23.28.28,0,0,1-.22.07h-1.25a.29.29,0,0,1-.22-.07.35.35,0,0,1-.07-.23v-2.62a.37.37,0,0,1,.07-.23A.29.29,0,0,1,339.51,295.45Z"/><path d="M338.08,295.45a.28.28,0,0,1,.22.07.32.32,0,0,1,.07.23v1a.29.29,0,0,1-.07.23.28.28,0,0,1-.22.08h-.8v2.84h.8a.28.28,0,0,1,.22.07.32.32,0,0,1,.07.23v1a.3.3,0,0,1-.07.23.28.28,0,0,1-.22.07h-3.43a.28.28,0,0,1-.22-.07.3.3,0,0,1-.07-.23v-1a.32.32,0,0,1,.07-.23.28.28,0,0,1,.22-.07h.78v-2.84h-.78a.28.28,0,0,1-.22-.08.29.29,0,0,1-.07-.23v-1a.32.32,0,0,1,.07-.23.28.28,0,0,1,.22-.07Z"/><path d="M330.63,295.45h1.3a.28.28,0,0,1,.22.07.32.32,0,0,1,.07.23v4.16h1.19a.29.29,0,0,1,.22.07.37.37,0,0,1,.07.23v1a.35.35,0,0,1-.07.23.29.29,0,0,1-.22.07h-4.26a.29.29,0,0,1-.22-.07.35.35,0,0,1-.07-.23v-1a.37.37,0,0,1,.07-.23.29.29,0,0,1,.22-.07h1.19v-4.16a.32.32,0,0,1,.07-.23A.26.26,0,0,1,330.63,295.45Z"/><path d="M326.76,295.75a.32.32,0,0,1,.07-.23.28.28,0,0,1,.22-.07h1.18a.3.3,0,0,1,.23.07.37.37,0,0,1,.06.23V298a2.6,2.6,0,0,1-.07.58,5.92,5.92,0,0,1-.24.77l-.7,1.92a.4.4,0,0,1-.15.22.5.5,0,0,1-.26.06h-2.17a.46.46,0,0,1-.25-.06.4.4,0,0,1-.15-.22l-.7-1.92a5.92,5.92,0,0,1-.24-.77,2.67,2.67,0,0,1-.08-.58v-2.24a.37.37,0,0,1,.07-.23.29.29,0,0,1,.22-.07H325a.33.33,0,0,1,.24.07.32.32,0,0,1,.07.23v1.19h1.43Zm-.46,4,.38-1.29h-1.27l.38,1.29a.52.52,0,0,0,.07.11.14.14,0,0,0,.09,0h.2a.11.11,0,0,0,.08,0A.3.3,0,0,0,326.3,299.77Z"/><path d="M318.13,295.45h4.1a.28.28,0,0,1,.22.07.32.32,0,0,1,.07.23v5.49a.3.3,0,0,1-.07.23.28.28,0,0,1-.22.07H321a.29.29,0,0,1-.22-.07.35.35,0,0,1-.07-.23v-4.19h-1.1v1.37a.29.29,0,0,1-.07.23.28.28,0,0,1-.22.07h-1.17a.29.29,0,0,1-.22-.07.29.29,0,0,1-.07-.23v-2.67a.32.32,0,0,1,.07-.23A.29.29,0,0,1,318.13,295.45Z"/></g><path d="M229.65,205.57H228.4a.29.29,0,0,1-.22-.08.33.33,0,0,1-.07-.23v-5.48a.38.38,0,0,1,.07-.24.34.34,0,0,1,.22-.07H232a.34.34,0,0,1,.22.07.38.38,0,0,1,.07.24v1a.38.38,0,0,1-.07.24.29.29,0,0,1-.22.07h-2.06V202h1.4a.3.3,0,0,1,.23.07.37.37,0,0,1,.06.23v1a.35.35,0,0,1-.06.23.3.3,0,0,1-.23.07h-1.4v1.67a.29.29,0,0,1-.07.23A.28.28,0,0,1,229.65,205.57Z"/><path d="M234.58,205.57h-1.2a.29.29,0,0,1-.22-.08.33.33,0,0,1-.07-.23v-5.48a.38.38,0,0,1,.07-.24.34.34,0,0,1,.22-.07h1.3a.33.33,0,0,1,.21.06.56.56,0,0,1,.16.2l.73,1.38a.54.54,0,0,0,.06.11.11.11,0,0,0,.08,0H236a.11.11,0,0,0,.08,0l.07-.11.71-1.38a.7.7,0,0,1,.16-.2.38.38,0,0,1,.22-.06h1.3a.32.32,0,0,1,.22.07.33.33,0,0,1,.07.24v5.48a.29.29,0,0,1-.07.23.28.28,0,0,1-.22.08h-1.24a.28.28,0,0,1-.22-.08.29.29,0,0,1-.07-.23v-3l-.48.93a.42.42,0,0,1-.17.2.49.49,0,0,1-.25.07h-.32a.5.5,0,0,1-.26-.07.49.49,0,0,1-.17-.2l-.48-.93v3a.29.29,0,0,1-.07.23A.28.28,0,0,1,234.58,205.57Z"/><path d="M244.75,205.57H242a.29.29,0,0,1-.22-.08.33.33,0,0,1-.07-.23v-5.48a.38.38,0,0,1,.07-.24.34.34,0,0,1,.22-.07h2.72a2.17,2.17,0,0,1,1.49.43,1.6,1.6,0,0,1,.49,1.3v2.64a1.6,1.6,0,0,1-.49,1.3A2.17,2.17,0,0,1,244.75,205.57Zm-1.18-4.48V204h1a.4.4,0,0,0,.29-.1.49.49,0,0,0,.09-.32V201.5a.43.43,0,0,0-.09-.31.37.37,0,0,0-.29-.1Z"/><path d="M247.92,205.57a.3.3,0,0,1-.23-.08.33.33,0,0,1-.06-.23v-1a.37.37,0,0,1,.06-.23.3.3,0,0,1,.23-.07h.79v-2.84h-.79a.3.3,0,0,1-.23-.08.33.33,0,0,1-.06-.23v-1a.38.38,0,0,1,.06-.24.35.35,0,0,1,.23-.07h3.43a.34.34,0,0,1,.22.07.38.38,0,0,1,.07.24v1a.33.33,0,0,1-.07.23.29.29,0,0,1-.22.08h-.78V204h.78a.29.29,0,0,1,.22.07.37.37,0,0,1,.07.23v1a.33.33,0,0,1-.07.23.29.29,0,0,1-.22.08Z"/><path d="M257.06,205.57h-2.54a2.17,2.17,0,0,1-1.49-.43,1.6,1.6,0,0,1-.49-1.3V201.2a1.6,1.6,0,0,1,.49-1.3,2.17,2.17,0,0,1,1.49-.43h2a.34.34,0,0,1,.22.07.38.38,0,0,1,.07.24v1a.33.33,0,0,1-.07.23.29.29,0,0,1-.22.08h-1.68a.55.55,0,0,0-.37.1.41.41,0,0,0-.12.32v2a.49.49,0,0,0,.09.32.4.4,0,0,0,.28.1h.78v-1.32a.33.33,0,0,1,.07-.24.34.34,0,0,1,.22-.07h1.25a.32.32,0,0,1,.22.07.33.33,0,0,1,.07.24v2.61a.29.29,0,0,1-.07.23A.28.28,0,0,1,257.06,205.57Z"/><path d="M258.49,205.57a.29.29,0,0,1-.22-.08.33.33,0,0,1-.07-.23v-1a.37.37,0,0,1,.07-.23.29.29,0,0,1,.22-.07h.8v-2.84h-.8a.29.29,0,0,1-.22-.08.33.33,0,0,1-.07-.23v-1a.38.38,0,0,1,.07-.24.34.34,0,0,1,.22-.07h3.44a.34.34,0,0,1,.22.07.38.38,0,0,1,.07.24v1a.33.33,0,0,1-.07.23.29.29,0,0,1-.22.08h-.79V204h.79a.29.29,0,0,1,.22.07.37.37,0,0,1,.07.23v1a.33.33,0,0,1-.07.23.29.29,0,0,1-.22.08Z"/><path d="M266,205.57h-1.31a.28.28,0,0,1-.22-.08.29.29,0,0,1-.07-.23v-4.15h-1.18a.3.3,0,0,1-.23-.08.33.33,0,0,1-.06-.23v-1a.38.38,0,0,1,.06-.24.35.35,0,0,1,.23-.07h4.25a.32.32,0,0,1,.22.07.33.33,0,0,1,.07.24v1a.29.29,0,0,1-.07.23.28.28,0,0,1-.22.08h-1.18v4.15a.33.33,0,0,1-.07.23A.29.29,0,0,1,266,205.57Z"/><path d="M269.81,205.26a.29.29,0,0,1-.07.23.28.28,0,0,1-.22.08h-1.18a.28.28,0,0,1-.22-.08.29.29,0,0,1-.07-.23V203a2.24,2.24,0,0,1,.08-.59c.05-.22.13-.47.23-.77l.7-1.92a.57.57,0,0,1,.15-.21.53.53,0,0,1,.26-.07h2.17a.53.53,0,0,1,.26.07.46.46,0,0,1,.14.21l.71,1.92c.1.3.18.55.23.77a2.75,2.75,0,0,1,.08.59v2.23a.29.29,0,0,1-.07.23.28.28,0,0,1-.22.08h-1.22a.32.32,0,0,1-.23-.08c-.06,0-.08-.12-.08-.23v-1.18h-1.43Zm.46-4-.38,1.29h1.27l-.38-1.29a.23.23,0,0,0-.07-.11.11.11,0,0,0-.08,0h-.2a.12.12,0,0,0-.09,0A.35.35,0,0,0,270.27,201.25Z"/><path d="M278.44,205.57h-4.1a.28.28,0,0,1-.22-.08.29.29,0,0,1-.07-.23v-5.48a.33.33,0,0,1,.07-.24.32.32,0,0,1,.22-.07h1.25a.32.32,0,0,1,.22.07.33.33,0,0,1,.07.24V204H277V202.6a.38.38,0,0,1,.07-.24.34.34,0,0,1,.22-.07h1.17a.32.32,0,0,1,.22.07.33.33,0,0,1,.07.24v2.66a.29.29,0,0,1-.07.23A.28.28,0,0,1,278.44,205.57Z"/><path d="M276.92,295.45h1.25a.29.29,0,0,1,.22.07.37.37,0,0,1,.07.23v5.49a.35.35,0,0,1-.07.23.29.29,0,0,1-.22.07h-3.6a.29.29,0,0,1-.22-.07.35.35,0,0,1-.07-.23v-1a.35.35,0,0,1,.07-.23.29.29,0,0,1,.22-.07h2.06v-.88h-1.4A.28.28,0,0,1,275,299a.29.29,0,0,1-.07-.23v-1a.33.33,0,0,1,.07-.24.32.32,0,0,1,.22-.07h1.4v-1.67a.32.32,0,0,1,.07-.23A.28.28,0,0,1,276.92,295.45Z"/><path d="M272,295.45h1.2a.29.29,0,0,1,.22.07.32.32,0,0,1,.07.23v5.49a.3.3,0,0,1-.07.23.29.29,0,0,1-.22.07h-1.3a.35.35,0,0,1-.21-.06.52.52,0,0,1-.16-.19l-.72-1.38a.72.72,0,0,0-.07-.11.11.11,0,0,0-.08,0h-.07a.11.11,0,0,0-.08,0,.72.72,0,0,0-.07.11l-.71,1.38a.52.52,0,0,1-.16.19.37.37,0,0,1-.21.06H268a.28.28,0,0,1-.22-.07.3.3,0,0,1-.07-.23v-5.49a.32.32,0,0,1,.07-.23.28.28,0,0,1,.22-.07h1.24a.28.28,0,0,1,.22.07.32.32,0,0,1,.07.23v3l.48-.92a.52.52,0,0,1,.17-.21.49.49,0,0,1,.25-.06h.33a.49.49,0,0,1,.25.06.52.52,0,0,1,.17.21l.48.92v-3a.32.32,0,0,1,.07-.23A.28.28,0,0,1,272,295.45Z"/><path d="M261.82,295.45h2.72a.29.29,0,0,1,.22.07.37.37,0,0,1,.07.23v5.49a.35.35,0,0,1-.07.23.29.29,0,0,1-.22.07h-2.72a2.23,2.23,0,0,1-1.49-.42,1.62,1.62,0,0,1-.49-1.3v-2.64a1.64,1.64,0,0,1,.49-1.31A2.23,2.23,0,0,1,261.82,295.45Zm1.18,4.48v-2.88h-1a.37.37,0,0,0-.29.1.46.46,0,0,0-.09.31v2.06a.46.46,0,0,0,.09.31.4.4,0,0,0,.29.1Z"/><path d="M258.66,295.45a.29.29,0,0,1,.22.07.37.37,0,0,1,.07.23v1a.33.33,0,0,1-.07.23.29.29,0,0,1-.22.08h-.8v2.84h.8a.29.29,0,0,1,.22.07.37.37,0,0,1,.07.23v1a.35.35,0,0,1-.07.23.29.29,0,0,1-.22.07h-3.44a.29.29,0,0,1-.22-.07.35.35,0,0,1-.07-.23v-1A.37.37,0,0,1,255,300a.29.29,0,0,1,.22-.07H256v-2.84h-.78A.29.29,0,0,1,255,297a.33.33,0,0,1-.07-.23v-1a.37.37,0,0,1,.07-.23.29.29,0,0,1,.22-.07Z"/><path d="M249.51,295.45h2.54a2.23,2.23,0,0,1,1.49.42,1.64,1.64,0,0,1,.49,1.31v2.64a1.62,1.62,0,0,1-.49,1.3,2.23,2.23,0,0,1-1.49.42h-2a.29.29,0,0,1-.22-.07.35.35,0,0,1-.07-.23v-1a.37.37,0,0,1,.07-.23.29.29,0,0,1,.22-.07h1.68a.54.54,0,0,0,.37-.11.39.39,0,0,0,.12-.31v-2a.46.46,0,0,0-.09-.31.34.34,0,0,0-.28-.1h-.78v1.32a.3.3,0,0,1-.07.23.28.28,0,0,1-.22.07h-1.25a.29.29,0,0,1-.22-.07.3.3,0,0,1-.07-.23v-2.62a.32.32,0,0,1,.07-.23A.29.29,0,0,1,249.51,295.45Z"/><path d="M248.08,295.45a.29.29,0,0,1,.22.07.37.37,0,0,1,.07.23v1a.33.33,0,0,1-.07.23.29.29,0,0,1-.22.08h-.8v2.84h.8a.29.29,0,0,1,.22.07.37.37,0,0,1,.07.23v1a.35.35,0,0,1-.07.23.29.29,0,0,1-.22.07h-3.43a.3.3,0,0,1-.23-.07.35.35,0,0,1-.06-.23v-1a.37.37,0,0,1,.06-.23.3.3,0,0,1,.23-.07h.78v-2.84h-.78a.3.3,0,0,1-.23-.08.33.33,0,0,1-.06-.23v-1a.37.37,0,0,1,.06-.23.3.3,0,0,1,.23-.07Z"/><path d="M240.63,295.45h1.3a.28.28,0,0,1,.22.07.32.32,0,0,1,.07.23v4.16h1.18a.3.3,0,0,1,.23.07.37.37,0,0,1,.06.23v1a.35.35,0,0,1-.06.23.3.3,0,0,1-.23.07h-4.25a.28.28,0,0,1-.22-.07.3.3,0,0,1-.07-.23v-1a.32.32,0,0,1,.07-.23.28.28,0,0,1,.22-.07h1.19v-4.16a.37.37,0,0,1,.06-.23A.3.3,0,0,1,240.63,295.45Z"/><path d="M236.76,295.75a.32.32,0,0,1,.07-.23.28.28,0,0,1,.22-.07h1.18a.28.28,0,0,1,.22.07.32.32,0,0,1,.07.23V298a2.6,2.6,0,0,1-.07.58,8,8,0,0,1-.24.77l-.7,1.92a.4.4,0,0,1-.15.22.53.53,0,0,1-.26.06h-2.17a.46.46,0,0,1-.25-.06.4.4,0,0,1-.15-.22l-.7-1.92a5.92,5.92,0,0,1-.24-.77,2.67,2.67,0,0,1-.08-.58v-2.24a.32.32,0,0,1,.07-.23.29.29,0,0,1,.22-.07H235a.34.34,0,0,1,.24.07.32.32,0,0,1,.07.23v1.19h1.43Zm-.46,4,.38-1.29h-1.27l.38,1.29a.52.52,0,0,0,.07.11.11.11,0,0,0,.08,0h.21a.11.11,0,0,0,.08,0A.52.52,0,0,0,236.3,299.77Z"/><path d="M228.13,295.45h4.1a.28.28,0,0,1,.22.07.32.32,0,0,1,.07.23v5.49a.3.3,0,0,1-.07.23.28.28,0,0,1-.22.07H231a.29.29,0,0,1-.22-.07.3.3,0,0,1-.07-.23v-4.19h-1.1v1.37a.29.29,0,0,1-.07.23.29.29,0,0,1-.22.07h-1.17a.28.28,0,0,1-.22-.07.29.29,0,0,1-.07-.23v-2.67a.32.32,0,0,1,.07-.23A.28.28,0,0,1,228.13,295.45Z"/><path d="M14.77,274.14v1.25a.28.28,0,0,1-.07.22.32.32,0,0,1-.23.07H9a.32.32,0,0,1-.23-.07.28.28,0,0,1-.07-.22V271.8a.26.26,0,0,1,.07-.22.32.32,0,0,1,.23-.07h1a.29.29,0,0,1,.23.07.27.27,0,0,1,.08.22v2.05h.88v-1.4a.28.28,0,0,1,.07-.22.3.3,0,0,1,.23-.07h1a.32.32,0,0,1,.23.07.28.28,0,0,1,.07.22v1.4h1.67a.32.32,0,0,1,.23.07A.29.29,0,0,1,14.77,274.14Z"/><path d="M14.77,269.21v1.2a.28.28,0,0,1-.07.22.32.32,0,0,1-.23.07H9a.32.32,0,0,1-.23-.07.28.28,0,0,1-.07-.22v-1.3a.37.37,0,0,1,.06-.21.52.52,0,0,1,.19-.16l1.38-.72.11-.07a.08.08,0,0,0,0-.08v-.07a.09.09,0,0,0,0-.08l-.11-.06-1.38-.72a.52.52,0,0,1-.19-.16.35.35,0,0,1-.06-.21v-1.31a.29.29,0,0,1,.07-.22A.37.37,0,0,1,9,265h5.49a.37.37,0,0,1,.23.07.29.29,0,0,1,.07.22v1.24a.3.3,0,0,1-.07.23.37.37,0,0,1-.23.06h-3l.92.48a.46.46,0,0,1,.21.17.5.5,0,0,1,.06.26V268a.49.49,0,0,1-.06.25.48.48,0,0,1-.21.18l-.92.47h3a.32.32,0,0,1,.23.07A.28.28,0,0,1,14.77,269.21Z"/><path d="M14.77,259v2.72a.29.29,0,0,1-.07.22.32.32,0,0,1-.23.07H9a.32.32,0,0,1-.23-.07.29.29,0,0,1-.07-.22V259a2.23,2.23,0,0,1,.42-1.49,1.63,1.63,0,0,1,1.31-.49h2.64a1.62,1.62,0,0,1,1.3.49A2.23,2.23,0,0,1,14.77,259Zm-4.47,1.18h2.87v-1a.38.38,0,0,0-.1-.29.46.46,0,0,0-.31-.09H10.7a.46.46,0,0,0-.31.09.42.42,0,0,0-.09.29Z"/><path d="M14.77,255.88a.29.29,0,0,1-.07.22.37.37,0,0,1-.23.07h-1a.35.35,0,0,1-.23-.07.29.29,0,0,1-.07-.22v-.8H10.31v.8a.29.29,0,0,1-.07.22.35.35,0,0,1-.23.07H9a.37.37,0,0,1-.23-.07.29.29,0,0,1-.07-.22v-3.43a.3.3,0,0,1,.07-.23.37.37,0,0,1,.23-.06h1a.35.35,0,0,1,.23.06.3.3,0,0,1,.07.23v.78h2.85v-.78a.3.3,0,0,1,.07-.23.35.35,0,0,1,.23-.06h1a.37.37,0,0,1,.23.06.3.3,0,0,1,.07.23Z"/><path d="M14.77,246.73v2.54a2.28,2.28,0,0,1-.42,1.5,1.65,1.65,0,0,1-1.3.48H10.41a1.66,1.66,0,0,1-1.31-.48,2.28,2.28,0,0,1-.42-1.5v-2a.28.28,0,0,1,.07-.22A.32.32,0,0,1,9,247h1a.3.3,0,0,1,.23.07.28.28,0,0,1,.07.22v1.67a.54.54,0,0,0,.11.37.39.39,0,0,0,.32.12h2a.46.46,0,0,0,.31-.09.34.34,0,0,0,.1-.28v-.78H11.85a.32.32,0,0,1-.23-.07.28.28,0,0,1-.07-.22v-1.25a.29.29,0,0,1,.07-.22.37.37,0,0,1,.23-.07h2.62a.37.37,0,0,1,.23.07A.29.29,0,0,1,14.77,246.73Z"/><path d="M14.77,245.3a.28.28,0,0,1-.07.22.32.32,0,0,1-.23.07h-1a.3.3,0,0,1-.23-.07.28.28,0,0,1-.07-.22v-.8H10.31v.8a.28.28,0,0,1-.07.22.3.3,0,0,1-.23.07H9a.32.32,0,0,1-.23-.07.28.28,0,0,1-.07-.22v-3.43a.28.28,0,0,1,.07-.22.32.32,0,0,1,.23-.07h1a.3.3,0,0,1,.23.07.28.28,0,0,1,.07.22v.78h2.85v-.78a.28.28,0,0,1,.07-.22.3.3,0,0,1,.23-.07h1a.32.32,0,0,1,.23.07.28.28,0,0,1,.07.22Z"/><path d="M14.77,237.85v1.3a.28.28,0,0,1-.07.22.32.32,0,0,1-.23.07H10.31v1.19a.29.29,0,0,1-.07.22.35.35,0,0,1-.23.07H9a.37.37,0,0,1-.23-.07.29.29,0,0,1-.07-.22v-4.26a.29.29,0,0,1,.07-.22.37.37,0,0,1,.23-.07h1a.35.35,0,0,1,.23.07.29.29,0,0,1,.07.22v1.19h4.16a.32.32,0,0,1,.23.07A.28.28,0,0,1,14.77,237.85Z"/><path d="M14.47,234a.32.32,0,0,1,.23.07.28.28,0,0,1,.07.22v1.18a.3.3,0,0,1-.07.23.37.37,0,0,1-.23.06H12.23a2.6,2.6,0,0,1-.58-.07,5.92,5.92,0,0,1-.77-.24L9,234.73a.34.34,0,0,1-.21-.15.42.42,0,0,1-.07-.26v-2.17a.39.39,0,0,1,.07-.25.34.34,0,0,1,.21-.15l1.92-.7a5.92,5.92,0,0,1,.77-.24,2.67,2.67,0,0,1,.58-.08h2.24a.37.37,0,0,1,.23.07.29.29,0,0,1,.07.22v1.22a.33.33,0,0,1-.07.24.32.32,0,0,1-.23.07H13.28V234Zm-4-.46,1.28.38v-1.27l-1.28.38a.35.35,0,0,0-.11.07.11.11,0,0,0,0,.09v.2a.09.09,0,0,0,0,.08A.23.23,0,0,0,10.46,233.52Z"/><path d="M14.77,225.35v4.1a.28.28,0,0,1-.07.22.32.32,0,0,1-.23.07H9a.32.32,0,0,1-.23-.07.28.28,0,0,1-.07-.22V228.2a.29.29,0,0,1,.07-.22.37.37,0,0,1,.23-.07h4.19v-1.1H11.8a.3.3,0,0,1-.23-.07.28.28,0,0,1-.07-.22v-1.17a.29.29,0,0,1,.07-.22.3.3,0,0,1,.23-.07h2.67a.32.32,0,0,1,.23.07A.29.29,0,0,1,14.77,225.35Z"/><path d="M484.8,226.87v-1.24a.3.3,0,0,1,.07-.23.35.35,0,0,1,.23-.06h5.48a.38.38,0,0,1,.24.06.3.3,0,0,1,.07.23v3.59a.29.29,0,0,1-.07.22.33.33,0,0,1-.24.07h-1a.29.29,0,0,1-.23-.07.29.29,0,0,1-.08-.22v-2.06h-.88v1.41a.29.29,0,0,1-.07.22.35.35,0,0,1-.23.07h-1a.37.37,0,0,1-.23-.07.29.29,0,0,1-.07-.22v-1.41H485.1a.35.35,0,0,1-.23-.06A.3.3,0,0,1,484.8,226.87Z"/><path d="M484.8,231.8v-1.2a.29.29,0,0,1,.07-.22.35.35,0,0,1,.23-.07h5.48a.38.38,0,0,1,.24.07.29.29,0,0,1,.07.22v1.3a.38.38,0,0,1-.06.22.63.63,0,0,1-.19.15l-1.38.73a.35.35,0,0,0-.11.07.07.07,0,0,0,0,.07v.07a.08.08,0,0,0,0,.08l.11.07,1.38.72a.63.63,0,0,1,.19.15.38.38,0,0,1,.06.22v1.3a.28.28,0,0,1-.07.22.33.33,0,0,1-.24.07H485.1a.3.3,0,0,1-.23-.07.28.28,0,0,1-.07-.22v-1.24a.29.29,0,0,1,.07-.22.3.3,0,0,1,.23-.07h3l-.92-.47a.48.48,0,0,1-.21-.18.46.46,0,0,1-.06-.25V233a.53.53,0,0,1,.06-.26.54.54,0,0,1,.21-.17l.92-.48h-3a.35.35,0,0,1-.23-.06A.3.3,0,0,1,484.8,231.8Z"/><path d="M484.8,242v-2.71a.26.26,0,0,1,.07-.22.3.3,0,0,1,.23-.07h5.48a.33.33,0,0,1,.24.07.26.26,0,0,1,.07.22V242a2.28,2.28,0,0,1-.42,1.5,1.67,1.67,0,0,1-1.31.48h-2.64a1.65,1.65,0,0,1-1.3-.48A2.28,2.28,0,0,1,484.8,242Zm4.47-1.17H486.4v.95a.37.37,0,0,0,.1.29.46.46,0,0,0,.31.09h2.06a.46.46,0,0,0,.31-.09.4.4,0,0,0,.09-.29Z"/><path d="M484.8,245.14a.28.28,0,0,1,.07-.22.3.3,0,0,1,.23-.07h1a.3.3,0,0,1,.23.07.28.28,0,0,1,.07.22v.8h2.85v-.8a.28.28,0,0,1,.07-.22.3.3,0,0,1,.23-.07h1a.33.33,0,0,1,.24.07.28.28,0,0,1,.07.22v3.43a.28.28,0,0,1-.07.22.33.33,0,0,1-.24.07h-1a.3.3,0,0,1-.23-.07.28.28,0,0,1-.07-.22v-.78h-2.85v.78a.28.28,0,0,1-.07.22.3.3,0,0,1-.23.07h-1a.3.3,0,0,1-.23-.07.28.28,0,0,1-.07-.22Z"/><path d="M484.8,254.28v-2.54a2.23,2.23,0,0,1,.42-1.49,1.62,1.62,0,0,1,1.3-.49h2.64a1.64,1.64,0,0,1,1.31.49,2.23,2.23,0,0,1,.42,1.49v2a.29.29,0,0,1-.07.22.33.33,0,0,1-.24.07h-1a.3.3,0,0,1-.23-.07.29.29,0,0,1-.07-.22v-1.68a.56.56,0,0,0-.11-.37.41.41,0,0,0-.32-.12h-2a.46.46,0,0,0-.31.09.37.37,0,0,0-.1.28v.78h1.32a.37.37,0,0,1,.23.07.29.29,0,0,1,.07.22v1.25a.28.28,0,0,1-.07.22.32.32,0,0,1-.23.07H485.1a.3.3,0,0,1-.23-.07A.28.28,0,0,1,484.8,254.28Z"/><path d="M484.8,255.72a.3.3,0,0,1,.07-.23.35.35,0,0,1,.23-.06h1a.35.35,0,0,1,.23.06.3.3,0,0,1,.07.23v.79h2.85v-.79a.3.3,0,0,1,.07-.23.35.35,0,0,1,.23-.06h1a.38.38,0,0,1,.24.06.3.3,0,0,1,.07.23v3.43a.29.29,0,0,1-.07.22.33.33,0,0,1-.24.07h-1a.3.3,0,0,1-.23-.07.29.29,0,0,1-.07-.22v-.78h-2.85v.78a.29.29,0,0,1-.07.22.3.3,0,0,1-.23.07h-1a.3.3,0,0,1-.23-.07.29.29,0,0,1-.07-.22Z"/><path d="M484.8,263.17v-1.31a.29.29,0,0,1,.07-.22.35.35,0,0,1,.23-.07h4.16v-1.18a.28.28,0,0,1,.07-.22.3.3,0,0,1,.23-.07h1a.33.33,0,0,1,.24.07.28.28,0,0,1,.07.22v4.25a.28.28,0,0,1-.07.22.33.33,0,0,1-.24.07h-1a.3.3,0,0,1-.23-.07.28.28,0,0,1-.07-.22v-1.18H485.1a.3.3,0,0,1-.23-.07A.29.29,0,0,1,484.8,263.17Z"/><path d="M485.1,267a.35.35,0,0,1-.23-.07.29.29,0,0,1-.07-.22v-1.19a.29.29,0,0,1,.07-.22.3.3,0,0,1,.23-.07h2.24a2.75,2.75,0,0,1,.58.08,5.92,5.92,0,0,1,.77.24l1.92.7a.34.34,0,0,1,.21.15.4.4,0,0,1,.07.26v2.16a.42.42,0,0,1-.07.26.38.38,0,0,1-.21.15l-1.92.7a8,8,0,0,1-.77.24,2.67,2.67,0,0,1-.58.07H485.1a.3.3,0,0,1-.23-.07.28.28,0,0,1-.07-.22v-1.21a.33.33,0,0,1,.07-.24.3.3,0,0,1,.23-.08h1.19V267Zm4,.45-1.28-.37v1.26l1.28-.38a.23.23,0,0,0,.11-.07.12.12,0,0,0,0-.08v-.2a.18.18,0,0,0,0-.09Z"/><path d="M484.8,275.66v-4.1a.29.29,0,0,1,.07-.22.35.35,0,0,1,.23-.07h5.48a.38.38,0,0,1,.24.07.29.29,0,0,1,.07.22v1.25a.28.28,0,0,1-.07.22.33.33,0,0,1-.24.07H486.4v1.11h1.37a.37.37,0,0,1,.23.06.3.3,0,0,1,.07.23v1.16a.3.3,0,0,1-.07.23.37.37,0,0,1-.23.06H485.1a.35.35,0,0,1-.23-.06A.3.3,0,0,1,484.8,275.66Z"/></g></svg>