<svg xmlns="http://www.w3.org/2000/svg" viewBox="0 0 500 500"><defs><style>.cls-1{fill:#ffc107;}.cls-2{fill:#ff3d00;}.cls-3{fill:#4caf50;}.cls-4{fill:#1976d2;}</style></defs><g id="Layer_2" data-name="Layer 2"><g id="Layer_1-2" data-name="Layer 1"><path class="cls-1" d="M495.14,201H475v-1H250V300H391.29a150.12,150.12,0,1,1-41.78-162l70.72-70.72A248.87,248.87,0,0,0,250,0C111.94,0,0,111.94,0,250S111.94,500,250,500,500,388.06,500,250A252.3,252.3,0,0,0,495.14,201Z"/><path class="cls-2" d="M28.83,133.64,111,193.88A149.69,149.69,0,0,1,349.51,138l70.72-70.72A248.87,248.87,0,0,0,250,0C154,0,70.7,54.21,28.83,133.64Z"/><path class="cls-3" d="M250,500a248.8,248.8,0,0,0,167.61-64.9l-77.37-65.48A149.61,149.61,0,0,1,109,300.68L27.44,363.49C68.81,444.45,152.84,500,250,500Z"/><path class="cls-4" d="M495.14,201H475v-1H250V300H391.29a150.51,150.51,0,0,1-51.09,69.64s0,0,0,0l77.37,65.48C412.14,440.06,500,375,500,250A252.3,252.3,0,0,0,495.14,201Z"/></g></g></svg>