<svg xmlns="http://www.w3.org/2000/svg" viewBox="0 0 500 500"><defs><style>.cls-1{fill:#fff;}</style></defs><g id="Layer_1" data-name="Layer 1"><path class="cls-1" d="M355.27,46.48H144.73a98.27,98.27,0,0,0-98.25,98.25V355.27a98.27,98.27,0,0,0,98.25,98.25H355.27a98.27,98.27,0,0,0,98.25-98.25V144.73A98.27,98.27,0,0,0,355.27,46.48Zm63.16,301.77a70.2,70.2,0,0,1-70.18,70.18H151.75a70.2,70.2,0,0,1-70.18-70.18V151.75a70.2,70.2,0,0,1,70.18-70.18h196.5a70.2,70.2,0,0,1,70.18,70.18Z"/><path class="cls-1" d="M250.2,144.73A105.27,105.27,0,1,0,355.47,250,105.31,105.31,0,0,0,250.2,144.73Zm0,175.45A70.18,70.18,0,1,1,320.38,250,70.29,70.29,0,0,1,250.2,320.18Z"/><circle class="cls-1" cx="362.49" cy="137.71" r="21.05"/></g></svg>