<svg xmlns="http://www.w3.org/2000/svg" viewBox="0 0 500 500"><defs><style>.cls-1{fill:#fff;}</style></defs><g id="Layer_1" data-name="Layer 1"><circle class="cls-1" cx="112.57" cy="108.41" r="49.97"/><rect class="cls-1" x="70.93" y="191.7" width="83.29" height="249.87" rx="1.91"/><path class="cls-1" d="M437.4,283.32V424.91a16.71,16.71,0,0,1-16.66,16.66h-50a16.71,16.71,0,0,1-16.66-16.66V308.3a41.65,41.65,0,0,0-83.29,0V424.91a16.71,16.71,0,0,1-16.66,16.66h-50a16.71,16.71,0,0,1-16.66-16.66V208.36a16.71,16.71,0,0,1,16.66-16.66h50a16.7,16.7,0,0,1,16.66,16.66V219c16.66-21.58,44.23-35.65,75-35.65C391.76,183.37,437.4,216.68,437.4,283.32Z"/></g></svg>